<?xml version="1.0" standalone="no"?>
<!DOCTYPE svg PUBLIC "-//W3C//DTD SVG 20010904//EN"
 "http://www.w3.org/TR/2001/REC-SVG-20010904/DTD/svg10.dtd">
<svg version="1.0" xmlns="http://www.w3.org/2000/svg"
 width="968.000000pt" height="968.000000pt" viewBox="0 0 968.000000 968.000000"
 preserveAspectRatio="xMidYMid meet">
<metadata>
Created by potrace 1.11, written by Peter Selinger 2001-2013
</metadata>
<g transform="translate(0.000000,968.000000) scale(0.100000,-0.100000)"
fill="#000000" stroke="none">
<path d="M4708 9675 c-2 -1 -25 -5 -53 -9 -27 -3 -62 -8 -77 -11 -16 -3 -38
-7 -50 -9 -13 -2 -35 -9 -50 -15 -16 -6 -28 -9 -28 -6 0 2 -16 -3 -35 -11 -19
-8 -35 -12 -35 -10 0 3 -29 -8 -64 -24 -35 -15 -67 -26 -70 -23 -3 4 -6 1 -6
-5 0 -7 -9 -12 -20 -12 -11 0 -20 -4 -20 -10 0 -5 -5 -10 -11 -10 -16 0 -153
-83 -219 -133 -62 -47 -225 -207 -255 -251 -11 -16 -28 -37 -37 -48 -10 -10
-18 -20 -18 -22 0 -3 -14 -25 -31 -50 -67 -100 -141 -272 -183 -426 -43 -161
-51 -388 -21 -595 2 -11 4 -20 5 -20 1 0 3 -9 4 -20 11 -77 58 -217 111 -330
36 -77 122 -218 136 -223 5 -2 9 -8 9 -13 0 -16 107 -138 175 -199 28 -25 52
-47 55 -50 40 -41 213 -151 305 -194 64 -31 239 -93 283 -101 15 -3 36 -7 47
-9 158 -31 362 -36 500 -12 105 18 102 18 165 35 124 34 253 90 359 154 70 42
174 118 179 130 2 4 7 5 11 2 5 -2 14 7 21 20 7 14 17 25 21 25 9 0 80 72 123
124 17 21 41 50 54 64 12 14 22 31 22 38 0 8 4 14 8 14 4 0 23 26 42 58 19 31
38 59 42 60 5 2 8 10 8 17 0 7 13 37 28 67 16 29 31 62 34 73 3 11 17 52 31
90 14 39 28 84 31 100 3 17 10 52 16 79 5 26 8 52 5 56 -3 5 -1 11 3 14 15 9
20 281 7 371 -3 22 -8 58 -11 80 -8 62 -62 241 -97 319 -52 118 -132 251 -202
335 -38 46 -180 187 -213 211 -19 14 -40 31 -47 38 -52 47 -324 192 -363 192
-11 0 -22 3 -24 8 -3 7 -167 52 -211 58 -12 1 -35 5 -52 9 -29 6 -331 15 -337
10z"/>
<path d="M1405 6722 c-2 -2 -24 -5 -50 -8 -25 -2 -68 -10 -96 -18 -27 -8 -51
-15 -54 -16 -57 -5 -240 -104 -323 -174 -42 -35 -152 -149 -152 -157 0 -4 -11
-20 -24 -36 -53 -63 -136 -247 -152 -336 -3 -18 -8 -45 -12 -62 -8 -37 -13
-3334 -5 -3348 3 -5 7 -35 9 -66 2 -31 6 -67 9 -81 3 -14 8 -40 11 -59 10 -59
13 -73 30 -130 10 -31 17 -61 15 -68 -1 -6 3 -14 9 -18 5 -3 10 -13 10 -21 0
-26 82 -196 126 -261 44 -64 92 -121 133 -157 12 -12 34 -31 47 -43 29 -26
136 -93 148 -92 5 0 12 -3 15 -8 13 -20 165 -65 261 -78 19 -3 44 -7 56 -9 11
-2 47 -7 79 -10 32 -4 78 -11 102 -16 24 -6 60 -12 79 -15 20 -2 44 -7 53 -9
9 -3 30 -8 46 -10 17 -3 62 -13 100 -21 39 -9 81 -18 95 -21 14 -3 61 -14 105
-25 44 -12 89 -23 100 -26 11 -3 28 -6 38 -6 9 -1 17 -5 17 -10 0 -4 6 -7 13
-6 6 1 19 0 27 -4 16 -6 92 -31 100 -32 34 -7 77 -19 90 -26 8 -4 71 -26 140
-49 69 -23 131 -47 138 -52 6 -6 12 -8 12 -5 0 5 87 -27 145 -53 11 -5 70 -30
130 -55 126 -54 390 -182 515 -251 210 -115 619 -372 628 -396 2 -4 9 -8 15
-8 6 0 32 -18 58 -40 26 -22 50 -40 53 -40 3 0 14 -6 23 -14 155 -127 264
-206 316 -230 38 -17 45 -19 127 -36 42 -8 165 -6 200 3 57 14 102 32 111 44
6 7 17 13 23 13 7 0 21 8 32 18 25 22 74 60 194 151 52 40 102 77 111 84 64
49 354 243 432 288 32 19 71 42 85 51 15 9 38 23 52 31 89 50 131 73 175 96
28 15 57 31 65 36 8 5 21 10 28 11 8 2 22 10 31 18 10 9 20 16 24 16 3 0 52
22 109 49 170 81 231 108 375 164 181 72 177 70 183 71 3 1 10 4 15 7 6 4 98
34 205 68 250 79 240 76 340 101 98 25 92 24 145 35 55 12 55 12 58 15 1 1 11
3 22 5 21 4 78 15 105 20 8 2 15 4 15 5 0 1 9 3 20 5 11 3 31 6 45 9 14 3 43
8 65 11 22 3 51 7 65 10 48 10 66 13 121 19 31 4 67 9 80 12 13 3 40 7 59 10
52 7 165 42 228 71 185 86 368 269 463 464 35 70 50 106 47 112 -1 1 4 12 11
25 7 13 14 33 17 45 34 160 33 122 31 1927 -1 971 -6 1779 -10 1795 -10 41
-21 89 -21 97 -1 3 -4 10 -8 14 -5 4 -8 16 -8 27 0 22 -87 204 -107 225 -7 8
-18 23 -24 34 -20 38 -163 188 -179 188 -4 0 -10 4 -12 8 -1 5 -30 26 -63 49
-187 125 -422 179 -640 148 -27 -4 -59 -8 -71 -9 -11 -2 -25 -5 -30 -8 -5 -3
-29 -9 -54 -12 -56 -7 -68 -10 -155 -31 -38 -10 -79 -19 -90 -20 -11 -2 -20
-4 -20 -5 0 -2 -13 -5 -52 -14 -118 -26 -521 -151 -590 -182 -17 -8 -37 -14
-45 -14 -8 0 -18 -3 -22 -7 -3 -4 -12 -8 -19 -9 -12 -3 -165 -64 -227 -92 -19
-8 -37 -16 -40 -16 -3 -1 -22 -9 -42 -19 -21 -9 -55 -24 -75 -33 -21 -9 -72
-33 -113 -52 -41 -20 -75 -34 -76 -31 0 2 -8 -4 -18 -14 -10 -9 -21 -15 -26
-12 -5 3 -11 1 -14 -4 -3 -5 -38 -26 -78 -46 -82 -43 -110 -58 -223 -124 -44
-25 -88 -50 -98 -56 -9 -5 -70 -44 -133 -85 -64 -41 -123 -80 -133 -85 -9 -6
-45 -30 -80 -55 -35 -25 -71 -49 -80 -55 -9 -5 -20 -16 -24 -22 -4 -7 -15 -13
-23 -13 -8 0 -17 -7 -20 -15 -4 -8 -12 -15 -20 -15 -8 0 -14 -4 -14 -8 0 -4
-12 -15 -27 -24 -16 -9 -40 -28 -55 -42 -15 -14 -32 -26 -37 -26 -6 0 -14 -6
-18 -13 -4 -7 -24 -24 -43 -37 -19 -13 -39 -29 -45 -35 -5 -6 -39 -36 -75 -66
-82 -68 -102 -86 -170 -148 -30 -28 -57 -51 -60 -51 -3 0 -26 19 -51 43 -70
64 -131 118 -179 157 -24 19 -48 40 -54 45 -60 57 -430 335 -445 335 -5 0 -11
3 -13 8 -1 4 -28 23 -58 42 -30 19 -57 37 -60 40 -9 9 -69 50 -74 50 -5 0
-121 72 -141 87 -5 5 -21 14 -35 20 -30 15 -92 50 -140 79 -34 21 -348 184
-353 183 -7 -1 -46 17 -67 32 -14 9 -29 18 -35 19 -20 5 -41 13 -80 30 -108
49 -134 60 -140 60 -4 0 -23 7 -43 16 -83 37 -99 43 -147 59 -27 9 -59 20 -70
25 -29 13 -197 70 -220 75 -19 4 -114 32 -145 43 -18 7 -202 56 -252 68 -10 2
-26 6 -35 8 -10 2 -40 10 -68 16 -27 6 -59 14 -70 17 -11 2 -29 6 -40 7 -11 1
-29 5 -40 9 -11 4 -34 9 -50 11 -17 3 -43 7 -59 11 -65 14 -262 26 -271 17z"/>
</g>
</svg>
