<?xml version="1.0" encoding="utf-8"?>
<!-- Generator: Adobe Illustrator 17.0.0, SVG Export Plug-In . SVG Version: 6.00 Build 0)  -->
<!DOCTYPE svg PUBLIC "-//W3C//DTD SVG 1.1//EN" "http://www.w3.org/Graphics/SVG/1.1/DTD/svg11.dtd">
<svg version="1.1" id="Layer_1" xmlns="http://www.w3.org/2000/svg" xmlns:xlink="http://www.w3.org/1999/xlink" x="0px" y="0px"
	 width="177.511px" height="55.66px" viewBox="0 0 177.511 55.66" enable-background="new 0 0 177.511 55.66" xml:space="preserve">
<g>
	<path fill="#333333" d="M57.488,43.112c0,0.942-0.256,1.663-0.768,2.162c-0.512,0.498-1.248,0.748-2.209,0.748h-1.582v-5.711h1.75
		c0.888,0,1.578,0.246,2.07,0.738S57.488,42.229,57.488,43.112z M56.785,43.135c0-0.745-0.187-1.307-0.561-1.684
		c-0.374-0.378-0.929-0.566-1.666-0.566h-0.965v4.562h0.809c0.792,0,1.387-0.195,1.785-0.584
		C56.586,44.474,56.785,43.898,56.785,43.135z"/>
	<path fill="#333333" d="M60.472,46.1c-0.633,0-1.132-0.193-1.498-0.578c-0.366-0.386-0.549-0.921-0.549-1.605
		c0-0.69,0.17-1.238,0.51-1.645s0.796-0.609,1.369-0.609c0.537,0,0.961,0.176,1.273,0.529c0.312,0.353,0.469,0.818,0.469,1.396v0.41
		h-2.949c0.013,0.502,0.14,0.884,0.381,1.145c0.241,0.26,0.58,0.391,1.018,0.391c0.461,0,0.917-0.097,1.367-0.289v0.578
		c-0.229,0.099-0.446,0.17-0.65,0.213S60.761,46.1,60.472,46.1z M60.297,42.206c-0.344,0-0.618,0.111-0.822,0.336
		c-0.205,0.224-0.325,0.533-0.361,0.93h2.238c0-0.409-0.091-0.723-0.273-0.939C60.896,42.314,60.635,42.206,60.297,42.206z"/>
	<path fill="#333333" d="M65.328,46.022v-5.711h0.664v5.109h2.52v0.602H65.328z"/>
	<path fill="#333333" d="M72.015,46.022l-0.129-0.609h-0.031c-0.213,0.268-0.426,0.449-0.639,0.545
		c-0.212,0.095-0.477,0.143-0.795,0.143c-0.424,0-0.757-0.109-0.998-0.328s-0.361-0.53-0.361-0.934c0-0.865,0.691-1.318,2.074-1.359
		l0.727-0.023V43.19c0-0.336-0.072-0.584-0.217-0.744s-0.375-0.24-0.693-0.24c-0.357,0-0.76,0.109-1.211,0.328l-0.199-0.496
		c0.211-0.115,0.442-0.205,0.693-0.27c0.251-0.065,0.503-0.098,0.756-0.098c0.51,0,0.889,0.113,1.135,0.34s0.369,0.59,0.369,1.09
		v2.922H72.015z M70.55,45.565c0.404,0,0.721-0.111,0.951-0.332c0.23-0.222,0.346-0.531,0.346-0.93v-0.387l-0.648,0.027
		c-0.516,0.018-0.887,0.098-1.115,0.24c-0.228,0.142-0.342,0.362-0.342,0.662c0,0.234,0.071,0.412,0.213,0.535
		C70.097,45.503,70.295,45.565,70.55,45.565z"/>
	<path fill="#333333" d="M79.23,44.502c0,0.502-0.182,0.895-0.547,1.176S77.824,46.1,77.199,46.1c-0.677,0-1.198-0.088-1.562-0.262
		v-0.641c0.234,0.099,0.49,0.177,0.766,0.234c0.276,0.057,0.549,0.086,0.82,0.086c0.443,0,0.776-0.084,1-0.252
		s0.336-0.402,0.336-0.701c0-0.198-0.04-0.36-0.119-0.486c-0.08-0.127-0.212-0.243-0.398-0.35c-0.186-0.107-0.469-0.229-0.85-0.363
		c-0.531-0.19-0.911-0.416-1.139-0.676c-0.228-0.261-0.342-0.601-0.342-1.02c0-0.44,0.166-0.791,0.496-1.051
		c0.331-0.261,0.768-0.391,1.312-0.391c0.568,0,1.09,0.104,1.566,0.312l-0.207,0.578c-0.471-0.198-0.93-0.297-1.375-0.297
		c-0.352,0-0.626,0.075-0.824,0.227c-0.198,0.15-0.297,0.36-0.297,0.629c0,0.197,0.037,0.359,0.109,0.486
		c0.073,0.126,0.196,0.242,0.369,0.348s0.438,0.222,0.795,0.35c0.599,0.213,1.011,0.442,1.236,0.688
		C79.117,43.793,79.23,44.112,79.23,44.502z"/>
	<path fill="#333333" d="M82.933,46.022l-0.129-0.609h-0.031c-0.213,0.268-0.426,0.449-0.639,0.545
		c-0.212,0.095-0.477,0.143-0.795,0.143c-0.424,0-0.757-0.109-0.998-0.328s-0.361-0.53-0.361-0.934c0-0.865,0.691-1.318,2.074-1.359
		l0.727-0.023V43.19c0-0.336-0.072-0.584-0.217-0.744s-0.375-0.24-0.693-0.24c-0.357,0-0.76,0.109-1.211,0.328l-0.199-0.496
		c0.211-0.115,0.442-0.205,0.693-0.27c0.251-0.065,0.503-0.098,0.756-0.098c0.51,0,0.889,0.113,1.135,0.34s0.369,0.59,0.369,1.09
		v2.922H82.933z M81.468,45.565c0.404,0,0.721-0.111,0.951-0.332c0.23-0.222,0.346-0.531,0.346-0.93v-0.387l-0.648,0.027
		c-0.516,0.018-0.887,0.098-1.115,0.24c-0.228,0.142-0.342,0.362-0.342,0.662c0,0.234,0.071,0.412,0.213,0.535
		C81.015,45.503,81.213,45.565,81.468,45.565z"/>
	<path fill="#333333" d="M85.398,46.022H84.75v-6.078h0.648V46.022z"/>
	<path fill="#333333" d="M87.422,46.022h-0.648v-6.078h0.648V46.022z"/>
	<path fill="#333333" d="M90.605,46.1c-0.633,0-1.132-0.193-1.498-0.578c-0.366-0.386-0.549-0.921-0.549-1.605
		c0-0.69,0.17-1.238,0.51-1.645s0.796-0.609,1.369-0.609c0.537,0,0.961,0.176,1.273,0.529c0.312,0.353,0.469,0.818,0.469,1.396v0.41
		H89.23c0.013,0.502,0.14,0.884,0.381,1.145c0.241,0.26,0.58,0.391,1.018,0.391c0.461,0,0.917-0.097,1.367-0.289v0.578
		c-0.229,0.099-0.446,0.17-0.65,0.213S90.894,46.1,90.605,46.1z M90.429,42.206c-0.344,0-0.618,0.111-0.822,0.336
		c-0.205,0.224-0.325,0.533-0.361,0.93h2.238c0-0.409-0.091-0.723-0.273-0.939C91.029,42.314,90.768,42.206,90.429,42.206z"/>
	<path fill="#333333" d="M99.773,40.311v3.695c0,0.65-0.197,1.162-0.59,1.535C98.79,45.914,98.25,46.1,97.562,46.1
		s-1.219-0.188-1.596-0.562s-0.564-0.891-0.564-1.547v-3.68h0.664v3.727c0,0.477,0.13,0.842,0.391,1.098
		c0.26,0.255,0.643,0.383,1.148,0.383c0.482,0,0.853-0.129,1.113-0.385c0.26-0.257,0.391-0.625,0.391-1.104v-3.719H99.773z"/>
	<path fill="#333333" d="M104.117,46.022v-2.77c0-0.35-0.08-0.609-0.238-0.781s-0.408-0.258-0.746-0.258
		c-0.448,0-0.776,0.121-0.984,0.363s-0.312,0.642-0.312,1.199v2.246h-0.648v-4.281h0.527l0.105,0.586h0.031
		c0.133-0.211,0.319-0.375,0.559-0.49c0.24-0.116,0.506-0.174,0.801-0.174c0.516,0,0.904,0.124,1.164,0.373
		c0.26,0.248,0.391,0.646,0.391,1.193v2.793H104.117z"/>
	<path fill="#333333" d="M106.043,40.581c0-0.148,0.037-0.258,0.109-0.326c0.073-0.069,0.164-0.104,0.273-0.104
		c0.104,0,0.194,0.035,0.27,0.105s0.113,0.178,0.113,0.324c0,0.146-0.038,0.254-0.113,0.326c-0.076,0.071-0.166,0.107-0.27,0.107
		c-0.109,0-0.201-0.036-0.273-0.107C106.079,40.834,106.043,40.726,106.043,40.581z M106.746,46.022h-0.648v-4.281h0.648V46.022z"/>
	<path fill="#333333" d="M109.058,46.022l-1.625-4.281h0.695l0.922,2.539c0.208,0.594,0.331,0.979,0.367,1.156h0.031
		c0.029-0.139,0.119-0.424,0.271-0.857s0.494-1.38,1.025-2.838h0.695l-1.625,4.281H109.058z"/>
	<path fill="#333333" d="M113.937,46.1c-0.633,0-1.132-0.193-1.498-0.578c-0.366-0.386-0.549-0.921-0.549-1.605
		c0-0.69,0.17-1.238,0.51-1.645s0.796-0.609,1.369-0.609c0.537,0,0.961,0.176,1.273,0.529c0.312,0.353,0.469,0.818,0.469,1.396v0.41
		h-2.949c0.013,0.502,0.14,0.884,0.381,1.145c0.241,0.26,0.58,0.391,1.018,0.391c0.461,0,0.917-0.097,1.367-0.289v0.578
		c-0.229,0.099-0.446,0.17-0.65,0.213S114.226,46.1,113.937,46.1z M113.761,42.206c-0.344,0-0.618,0.111-0.822,0.336
		c-0.205,0.224-0.325,0.533-0.361,0.93h2.238c0-0.409-0.091-0.723-0.273-0.939C114.361,42.314,114.1,42.206,113.761,42.206z"/>
	<path fill="#333333" d="M118.57,41.663c0.19,0,0.361,0.016,0.512,0.047l-0.09,0.602c-0.177-0.039-0.333-0.059-0.469-0.059
		c-0.346,0-0.643,0.141-0.889,0.422s-0.369,0.631-0.369,1.051v2.297h-0.648v-4.281h0.535l0.074,0.793h0.031
		c0.159-0.279,0.35-0.494,0.574-0.645C118.056,41.738,118.302,41.663,118.57,41.663z"/>
	<path fill="#333333" d="M122.644,44.854c0,0.398-0.148,0.705-0.445,0.922c-0.297,0.216-0.713,0.324-1.25,0.324
		c-0.568,0-1.01-0.09-1.328-0.27v-0.602c0.206,0.104,0.426,0.186,0.662,0.246c0.236,0.06,0.463,0.09,0.682,0.09
		c0.338,0,0.599-0.055,0.781-0.162c0.182-0.108,0.273-0.273,0.273-0.494c0-0.167-0.072-0.31-0.217-0.428
		c-0.145-0.119-0.426-0.259-0.846-0.42c-0.398-0.148-0.682-0.278-0.85-0.389c-0.168-0.111-0.293-0.236-0.375-0.377
		s-0.123-0.309-0.123-0.504c0-0.35,0.142-0.625,0.426-0.826c0.284-0.202,0.673-0.303,1.168-0.303c0.461,0,0.912,0.094,1.352,0.281
		l-0.23,0.527c-0.43-0.178-0.819-0.266-1.168-0.266c-0.307,0-0.539,0.048-0.695,0.145c-0.156,0.096-0.234,0.229-0.234,0.398
		c0,0.114,0.029,0.212,0.088,0.293c0.059,0.08,0.153,0.157,0.283,0.23c0.13,0.072,0.38,0.178,0.75,0.316
		c0.508,0.185,0.851,0.371,1.029,0.559S122.644,44.57,122.644,44.854z"/>
	<path fill="#333333" d="M123.644,40.581c0-0.148,0.037-0.258,0.109-0.326c0.073-0.069,0.164-0.104,0.273-0.104
		c0.104,0,0.194,0.035,0.27,0.105s0.113,0.178,0.113,0.324c0,0.146-0.038,0.254-0.113,0.326c-0.076,0.071-0.166,0.107-0.27,0.107
		c-0.109,0-0.201-0.036-0.273-0.107C123.681,40.834,123.644,40.726,123.644,40.581z M124.347,46.022h-0.648v-4.281h0.648V46.022z"/>
	<path fill="#333333" d="M127.105,45.565c0.115,0,0.225-0.009,0.332-0.025c0.107-0.018,0.191-0.035,0.254-0.053v0.496
		c-0.07,0.033-0.174,0.062-0.311,0.084c-0.137,0.021-0.26,0.033-0.369,0.033c-0.828,0-1.242-0.437-1.242-1.309v-2.547h-0.613v-0.312
		l0.613-0.27l0.273-0.914h0.375v0.992h1.242v0.504h-1.242v2.52c0,0.258,0.061,0.455,0.184,0.594
		C126.724,45.496,126.892,45.565,127.105,45.565z"/>
	<path fill="#333333" d="M127.867,41.741h0.695l0.938,2.441c0.206,0.557,0.333,0.959,0.383,1.207h0.031
		c0.034-0.133,0.105-0.36,0.213-0.682c0.108-0.322,0.461-1.311,1.061-2.967h0.695l-1.84,4.875c-0.182,0.481-0.395,0.823-0.639,1.025
		c-0.244,0.201-0.542,0.303-0.896,0.303c-0.198,0-0.393-0.022-0.586-0.066v-0.52c0.143,0.031,0.303,0.047,0.48,0.047
		c0.445,0,0.763-0.25,0.953-0.75l0.238-0.609L127.867,41.741z"/>
</g>
<g>
	<path fill="#333333" d="M56.759,17.857c-0.69,0-1.296-0.114-1.819-0.343c-0.522-0.229-0.96-0.554-1.313-0.977
		c-0.354-0.422-0.619-0.929-0.797-1.521s-0.267-1.244-0.267-1.957c0-0.746,0.111-1.418,0.333-2.018
		c0.223-0.6,0.53-1.112,0.924-1.536s0.858-0.751,1.394-0.979c0.535-0.229,1.116-0.343,1.742-0.343c0.69,0,1.295,0.113,1.815,0.338
		c0.521,0.225,0.954,0.544,1.301,0.956s0.607,0.909,0.781,1.492s0.26,1.23,0.26,1.942c0,0.749-0.11,1.426-0.33,2.032
		s-0.524,1.124-0.911,1.554c-0.388,0.43-0.847,0.764-1.378,1.002C57.965,17.738,57.386,17.857,56.759,17.857z M56.842,17.108
		c0.398,0,0.759-0.087,1.082-0.262c0.324-0.174,0.6-0.436,0.829-0.783c0.229-0.348,0.405-0.784,0.53-1.311
		c0.125-0.526,0.188-1.141,0.188-1.843c0-0.617-0.058-1.172-0.175-1.665c-0.116-0.493-0.287-0.912-0.511-1.255
		c-0.224-0.343-0.5-0.606-0.825-0.789s-0.696-0.274-1.111-0.274c-0.398,0-0.758,0.083-1.083,0.25
		c-0.323,0.167-0.601,0.42-0.831,0.762c-0.231,0.341-0.409,0.772-0.533,1.292c-0.125,0.52-0.188,1.131-0.188,1.834
		c0,0.617,0.058,1.175,0.175,1.674c0.116,0.5,0.287,0.925,0.511,1.276s0.5,0.622,0.825,0.811S56.423,17.108,56.842,17.108z"/>
	<path fill="#333333" d="M62.187,17.18l0.832-0.104v-5.153l-0.908-0.246v-0.802l1.879-0.254h0.032l0.298,0.248v0.539l-0.006,0.306
		c0.14-0.131,0.311-0.262,0.514-0.392s0.422-0.246,0.657-0.349c0.234-0.103,0.478-0.187,0.729-0.25
		c0.252-0.064,0.497-0.096,0.733-0.096c0.415,0,0.756,0.056,1.025,0.168c0.269,0.112,0.481,0.287,0.638,0.525
		s0.266,0.543,0.327,0.914c0.061,0.371,0.092,0.814,0.092,1.328v3.514l0.914,0.104v0.67h-3.187v-0.67l0.812-0.104v-3.507
		c0-0.334-0.016-0.625-0.048-0.871c-0.031-0.246-0.093-0.449-0.184-0.61c-0.091-0.161-0.22-0.281-0.388-0.359
		c-0.167-0.079-0.386-0.118-0.657-0.118c-0.161,0-0.325,0.02-0.492,0.059c-0.167,0.039-0.33,0.091-0.489,0.157
		c-0.158,0.065-0.31,0.14-0.454,0.222c-0.144,0.083-0.273,0.168-0.387,0.255v4.772l0.876,0.104v0.67h-3.161V17.18z"/>
	<path fill="#333333" d="M70.731,17.159l1.028-0.108V8.196l-1.041-0.127V7.466l2.165-0.273h0.013l0.311,0.216v9.642l1.079,0.108
		v0.692h-3.555V17.159z"/>
	<path fill="#333333" d="M75.13,17.159l1.028-0.108v-5.319l-0.92-0.26v-0.749l2.019-0.26h0.032l0.324,0.248v6.341l1.016,0.108v0.692
		H75.13V17.159z M76.345,9.113c-0.104-0.045-0.192-0.106-0.264-0.185c-0.072-0.078-0.128-0.17-0.168-0.276
		c-0.041-0.106-0.061-0.22-0.061-0.343c0-0.135,0.02-0.265,0.061-0.387c0.04-0.123,0.1-0.231,0.181-0.327
		c0.081-0.095,0.18-0.171,0.298-0.229c0.119-0.057,0.256-0.085,0.413-0.085h0.006c0.14,0,0.263,0.024,0.372,0.073
		c0.107,0.049,0.199,0.114,0.272,0.197c0.074,0.082,0.13,0.176,0.168,0.282s0.057,0.216,0.057,0.33c0,0.14-0.02,0.272-0.061,0.396
		c-0.04,0.125-0.102,0.233-0.184,0.324c-0.083,0.091-0.187,0.163-0.312,0.216c-0.125,0.053-0.27,0.079-0.435,0.079h-0.006
		C76.562,9.18,76.449,9.157,76.345,9.113z"/>
	<path fill="#333333" d="M79.63,17.18l0.832-0.104v-5.153l-0.908-0.246v-0.802l1.879-0.254h0.032l0.298,0.248v0.539l-0.006,0.306
		c0.14-0.131,0.311-0.262,0.514-0.392s0.422-0.246,0.657-0.349c0.234-0.103,0.478-0.187,0.729-0.25
		c0.252-0.064,0.497-0.096,0.733-0.096c0.415,0,0.756,0.056,1.025,0.168c0.269,0.112,0.481,0.287,0.638,0.525
		s0.266,0.543,0.327,0.914c0.061,0.371,0.092,0.814,0.092,1.328v3.514l0.914,0.104v0.67H84.2v-0.67l0.812-0.104v-3.507
		c0-0.334-0.016-0.625-0.048-0.871c-0.031-0.246-0.093-0.449-0.184-0.61c-0.091-0.161-0.22-0.281-0.388-0.359
		c-0.167-0.079-0.386-0.118-0.657-0.118c-0.161,0-0.325,0.02-0.492,0.059c-0.167,0.039-0.33,0.091-0.489,0.157
		c-0.158,0.065-0.31,0.14-0.454,0.222c-0.144,0.083-0.273,0.168-0.387,0.255v4.772l0.876,0.104v0.67H79.63V17.18z"/>
	<path fill="#333333" d="M88.25,14.251c0-0.542,0.084-1.036,0.254-1.481c0.169-0.445,0.405-0.827,0.708-1.145
		c0.303-0.317,0.663-0.563,1.079-0.737c0.417-0.174,0.873-0.261,1.368-0.261c0.812,0,1.441,0.201,1.885,0.604
		c0.444,0.402,0.681,0.99,0.711,1.763c0.004,0.248,0.001,0.464-0.009,0.65c-0.011,0.186-0.033,0.348-0.067,0.487H89.78
		c0.013,0.482,0.079,0.897,0.2,1.244c0.12,0.347,0.277,0.632,0.47,0.854c0.192,0.223,0.417,0.386,0.673,0.492
		c0.256,0.106,0.528,0.159,0.815,0.159c0.182,0,0.366-0.017,0.552-0.051s0.365-0.08,0.537-0.136c0.171-0.058,0.33-0.121,0.476-0.19
		c0.146-0.07,0.268-0.143,0.365-0.219l0.267,0.609c-0.119,0.123-0.273,0.242-0.463,0.359c-0.19,0.116-0.401,0.219-0.631,0.308
		c-0.231,0.089-0.478,0.161-0.74,0.216s-0.527,0.083-0.793,0.083c-0.546,0-1.023-0.088-1.432-0.264
		c-0.408-0.176-0.748-0.424-1.019-0.744c-0.271-0.319-0.473-0.7-0.606-1.141C88.317,15.267,88.25,14.781,88.25,14.251z
		 M92.732,13.395c0.008-0.073,0.015-0.152,0.019-0.237c0.004-0.085,0.006-0.163,0.006-0.232c0-0.21-0.025-0.408-0.076-0.594
		c-0.051-0.185-0.13-0.348-0.238-0.487c-0.108-0.14-0.249-0.25-0.422-0.33c-0.173-0.08-0.387-0.12-0.641-0.12
		c-0.216,0-0.417,0.032-0.603,0.095c-0.186,0.064-0.35,0.173-0.492,0.327c-0.142,0.154-0.256,0.359-0.343,0.616
		c-0.087,0.256-0.141,0.576-0.162,0.961H92.732z"/>
	<path fill="#333333" d="M99.301,17.159l1.066-0.146V9.128l-0.997-0.162V8.189h1.568c0.199,0,0.375,0,0.53,0
		c0.154,0,0.313,0,0.476,0c0.163,0,0.341,0,0.533,0c0.193,0,0.427,0,0.702,0c0.69,0,1.265,0.062,1.727,0.184
		c0.461,0.123,0.832,0.301,1.111,0.534c0.279,0.233,0.477,0.52,0.594,0.858c0.116,0.339,0.174,0.726,0.174,1.158
		c0,0.529-0.094,0.999-0.283,1.411c-0.188,0.412-0.449,0.761-0.784,1.046s-0.732,0.502-1.193,0.652s-0.965,0.225-1.511,0.225
		c-0.119,0-0.24,0-0.365,0c-0.125,0-0.241,0-0.35,0c-0.107,0-0.201-0.003-0.279-0.01c-0.078-0.006-0.132-0.014-0.162-0.022v2.787
		l1.714,0.146v0.692h-4.272V17.159z M101.853,13.465c0.119,0.029,0.267,0.044,0.444,0.044s0.417,0,0.717,0
		c0.279,0,0.55-0.041,0.812-0.123s0.494-0.223,0.695-0.423c0.201-0.2,0.362-0.467,0.482-0.802c0.121-0.335,0.181-0.757,0.181-1.266
		c0-0.37-0.045-0.685-0.136-0.944c-0.091-0.259-0.228-0.47-0.41-0.634s-0.411-0.284-0.686-0.36s-0.597-0.114-0.965-0.114
		c-0.148,0-0.276,0.004-0.384,0.013c-0.107,0.008-0.205,0.017-0.292,0.025c-0.086,0.008-0.166,0.018-0.238,0.028
		c-0.072,0.011-0.146,0.016-0.222,0.016V13.465z"/>
	<path fill="#333333" d="M107.649,15.791c0-0.445,0.12-0.822,0.359-1.131c0.239-0.31,0.556-0.562,0.952-0.756
		c0.396-0.195,0.848-0.339,1.358-0.433c0.51-0.093,1.038-0.14,1.583-0.14v-0.282c0-0.246-0.021-0.456-0.063-0.63
		s-0.118-0.315-0.225-0.423c-0.108-0.108-0.253-0.188-0.435-0.239s-0.413-0.076-0.692-0.076c-0.237,0-0.467,0.018-0.688,0.053
		c-0.223,0.035-0.431,0.079-0.625,0.133c-0.195,0.053-0.373,0.11-0.533,0.171s-0.298,0.117-0.413,0.169h-0.006l-0.317-0.583
		c0.072-0.068,0.208-0.158,0.41-0.27c0.201-0.112,0.438-0.222,0.711-0.33c0.272-0.107,0.568-0.201,0.885-0.279
		c0.317-0.078,0.628-0.117,0.933-0.117c0.457,0,0.842,0.043,1.155,0.131c0.313,0.087,0.566,0.228,0.759,0.422
		c0.192,0.195,0.331,0.447,0.416,0.757c0.084,0.31,0.127,0.686,0.127,1.127v3.949h0.774v0.622c-0.081,0.021-0.177,0.044-0.289,0.07
		c-0.112,0.025-0.232,0.049-0.359,0.07s-0.255,0.04-0.384,0.057c-0.129,0.017-0.25,0.025-0.365,0.025
		c-0.123,0-0.227-0.006-0.311-0.019s-0.154-0.041-0.209-0.086c-0.055-0.044-0.095-0.11-0.121-0.196
		c-0.025-0.087-0.038-0.202-0.038-0.346v-0.305c-0.072,0.068-0.175,0.156-0.308,0.264c-0.134,0.108-0.292,0.212-0.477,0.314
		c-0.184,0.102-0.391,0.189-0.622,0.264c-0.23,0.074-0.479,0.111-0.746,0.111c-0.292,0-0.571-0.04-0.838-0.121
		s-0.5-0.205-0.702-0.372c-0.201-0.167-0.36-0.381-0.479-0.642S107.649,16.151,107.649,15.791z M109.229,15.61
		c0,0.233,0.031,0.431,0.092,0.593c0.062,0.163,0.146,0.296,0.254,0.4c0.108,0.104,0.237,0.179,0.388,0.225
		c0.15,0.046,0.312,0.07,0.485,0.07c0.097,0,0.208-0.015,0.333-0.044c0.125-0.03,0.253-0.071,0.384-0.124
		c0.131-0.053,0.26-0.114,0.387-0.185c0.127-0.069,0.243-0.145,0.349-0.225v-2.279c-0.491,0-0.906,0.043-1.244,0.13
		c-0.338,0.087-0.614,0.201-0.825,0.343c-0.211,0.142-0.365,0.308-0.46,0.499C109.277,15.204,109.229,15.402,109.229,15.61z"/>
	<path fill="#333333" d="M115.761,20.142v-8.204l-0.908-0.238v-0.794l1.873-0.254h0.032l0.286,0.248v0.758
		c0.106-0.123,0.232-0.245,0.377-0.368c0.146-0.123,0.312-0.233,0.495-0.332c0.185-0.099,0.388-0.179,0.609-0.24
		c0.223-0.061,0.462-0.092,0.721-0.092c0.368,0,0.724,0.065,1.066,0.194s0.645,0.331,0.904,0.604
		c0.261,0.273,0.469,0.624,0.625,1.053s0.235,0.943,0.235,1.542c0,0.526-0.086,1.022-0.257,1.487
		c-0.172,0.465-0.417,0.872-0.736,1.22c-0.32,0.348-0.708,0.623-1.165,0.825c-0.457,0.203-0.973,0.304-1.549,0.304
		c-0.102,0-0.208-0.004-0.317-0.013s-0.218-0.02-0.324-0.035c-0.106-0.015-0.208-0.032-0.305-0.051s-0.184-0.039-0.26-0.061
		l0.038,1.132v1.318l1.301,0.144v0.707h-3.688v-0.707L115.761,20.142z M117.202,16.758c0.03,0.048,0.082,0.093,0.155,0.137
		c0.074,0.043,0.164,0.083,0.27,0.119s0.227,0.064,0.362,0.086s0.277,0.033,0.425,0.033c0.292,0,0.564-0.054,0.816-0.162
		c0.251-0.108,0.473-0.278,0.663-0.509s0.341-0.531,0.451-0.898c0.11-0.368,0.169-0.811,0.178-1.33
		c0.004-0.463-0.042-0.862-0.136-1.195c-0.096-0.333-0.228-0.607-0.397-0.821c-0.169-0.214-0.368-0.371-0.597-0.47
		c-0.229-0.1-0.474-0.15-0.736-0.15c-0.165,0-0.321,0.019-0.466,0.057c-0.146,0.038-0.282,0.086-0.406,0.146
		c-0.125,0.059-0.237,0.125-0.337,0.199c-0.099,0.074-0.181,0.145-0.244,0.212V16.758z"/>
	<path fill="#333333" d="M123.15,14.251c0-0.542,0.084-1.036,0.254-1.481c0.169-0.445,0.405-0.827,0.708-1.145
		c0.303-0.317,0.663-0.563,1.079-0.737c0.417-0.174,0.873-0.261,1.368-0.261c0.812,0,1.441,0.201,1.885,0.604
		c0.444,0.402,0.681,0.99,0.711,1.763c0.004,0.248,0.001,0.464-0.009,0.65c-0.011,0.186-0.033,0.348-0.067,0.487h-4.399
		c0.013,0.482,0.079,0.897,0.2,1.244c0.12,0.347,0.277,0.632,0.47,0.854c0.192,0.223,0.417,0.386,0.673,0.492
		c0.256,0.106,0.528,0.159,0.815,0.159c0.182,0,0.366-0.017,0.552-0.051s0.365-0.08,0.537-0.136c0.171-0.058,0.33-0.121,0.476-0.19
		c0.146-0.07,0.268-0.143,0.365-0.219l0.267,0.609c-0.119,0.123-0.273,0.242-0.463,0.359c-0.19,0.116-0.401,0.219-0.631,0.308
		c-0.231,0.089-0.478,0.161-0.74,0.216s-0.527,0.083-0.793,0.083c-0.546,0-1.023-0.088-1.432-0.264
		c-0.408-0.176-0.748-0.424-1.019-0.744c-0.271-0.319-0.473-0.7-0.606-1.141C123.217,15.267,123.15,14.781,123.15,14.251z
		 M127.631,13.395c0.008-0.073,0.015-0.152,0.019-0.237c0.004-0.085,0.006-0.163,0.006-0.232c0-0.21-0.025-0.408-0.076-0.594
		c-0.051-0.185-0.13-0.348-0.238-0.487c-0.108-0.14-0.249-0.25-0.422-0.33c-0.173-0.08-0.387-0.12-0.641-0.12
		c-0.216,0-0.417,0.032-0.603,0.095c-0.186,0.064-0.35,0.173-0.492,0.327c-0.142,0.154-0.256,0.359-0.343,0.616
		c-0.087,0.256-0.141,0.576-0.162,0.961H127.631z"/>
	<path fill="#333333" d="M130.259,17.165l0.997-0.099v-5.144l-0.901-0.254v-0.762l1.815-0.254h0.032l0.305,0.248v0.417l-0.013,0.86
		h0.013c0.021-0.043,0.064-0.113,0.13-0.207c0.065-0.094,0.15-0.199,0.254-0.312c0.104-0.114,0.225-0.232,0.365-0.354
		s0.295-0.234,0.466-0.335c0.172-0.101,0.357-0.183,0.556-0.247s0.413-0.095,0.641-0.095c0.097,0,0.18,0.006,0.248,0.02
		s0.125,0.031,0.171,0.052v1.605c-0.072-0.054-0.173-0.103-0.305-0.146s-0.279-0.065-0.444-0.065c-0.237,0-0.452,0.017-0.644,0.05
		c-0.193,0.033-0.366,0.078-0.521,0.133c-0.155,0.056-0.291,0.118-0.41,0.187s-0.222,0.137-0.311,0.204v4.447h1.669v0.736h-4.113
		V17.165z"/>
	<path fill="#333333" d="M136.118,17.159l1.028-0.108V8.196l-1.041-0.127V7.466l2.165-0.273h0.013l0.311,0.216v9.642l1.079,0.108
		v0.692h-3.555V17.159z"/>
	<path fill="#333333" d="M140.561,14.251c0-0.542,0.084-1.036,0.254-1.481c0.169-0.445,0.405-0.827,0.708-1.145
		c0.303-0.317,0.663-0.563,1.079-0.737c0.417-0.174,0.873-0.261,1.368-0.261c0.812,0,1.441,0.201,1.885,0.604
		c0.444,0.402,0.681,0.99,0.711,1.763c0.004,0.248,0.001,0.464-0.009,0.65c-0.011,0.186-0.033,0.348-0.067,0.487h-4.399
		c0.013,0.482,0.079,0.897,0.2,1.244c0.12,0.347,0.277,0.632,0.47,0.854c0.192,0.223,0.417,0.386,0.673,0.492
		c0.256,0.106,0.528,0.159,0.815,0.159c0.182,0,0.366-0.017,0.552-0.051s0.365-0.08,0.537-0.136c0.171-0.058,0.33-0.121,0.476-0.19
		c0.146-0.07,0.268-0.143,0.365-0.219l0.267,0.609c-0.119,0.123-0.273,0.242-0.463,0.359c-0.19,0.116-0.401,0.219-0.631,0.308
		c-0.231,0.089-0.478,0.161-0.74,0.216s-0.527,0.083-0.793,0.083c-0.546,0-1.023-0.088-1.432-0.264
		c-0.408-0.176-0.748-0.424-1.019-0.744c-0.271-0.319-0.473-0.7-0.606-1.141C140.628,15.267,140.561,14.781,140.561,14.251z
		 M145.043,13.395c0.008-0.073,0.015-0.152,0.019-0.237c0.004-0.085,0.006-0.163,0.006-0.232c0-0.21-0.025-0.408-0.076-0.594
		c-0.051-0.185-0.13-0.348-0.238-0.487c-0.108-0.14-0.249-0.25-0.422-0.33c-0.173-0.08-0.387-0.12-0.641-0.12
		c-0.216,0-0.417,0.032-0.603,0.095c-0.186,0.064-0.35,0.173-0.492,0.327c-0.142,0.154-0.256,0.359-0.343,0.616
		c-0.087,0.256-0.141,0.576-0.162,0.961H145.043z"/>
	<path fill="#333333" d="M147.836,15.72h0.895l0.254,0.918c0.038,0.061,0.104,0.121,0.196,0.181c0.094,0.061,0.203,0.115,0.33,0.163
		c0.127,0.048,0.268,0.087,0.423,0.115c0.154,0.028,0.312,0.042,0.473,0.042c0.254,0,0.467-0.024,0.638-0.073
		c0.172-0.049,0.308-0.117,0.409-0.204s0.174-0.189,0.216-0.307c0.043-0.118,0.063-0.245,0.063-0.383c0-0.162-0.04-0.307-0.12-0.435
		c-0.081-0.127-0.201-0.249-0.362-0.364c-0.16-0.116-0.36-0.229-0.6-0.34s-0.52-0.228-0.841-0.35
		c-0.326-0.121-0.61-0.253-0.854-0.395c-0.244-0.142-0.446-0.302-0.606-0.48c-0.161-0.178-0.28-0.377-0.358-0.596
		c-0.079-0.219-0.118-0.468-0.118-0.747s0.067-0.532,0.2-0.756c0.134-0.225,0.319-0.418,0.556-0.58
		c0.236-0.162,0.518-0.287,0.841-0.374c0.324-0.087,0.676-0.131,1.057-0.131c0.275,0,0.527,0.017,0.756,0.051
		s0.432,0.074,0.609,0.118c0.178,0.045,0.332,0.09,0.463,0.134c0.132,0.045,0.239,0.078,0.324,0.1v1.543h-0.812l-0.273-0.848
		c-0.025-0.049-0.071-0.096-0.14-0.143c-0.067-0.046-0.151-0.088-0.25-0.124c-0.1-0.036-0.212-0.065-0.337-0.088
		c-0.125-0.022-0.255-0.033-0.391-0.033c-0.207,0-0.389,0.021-0.546,0.064c-0.156,0.042-0.287,0.101-0.394,0.176
		c-0.105,0.075-0.185,0.166-0.237,0.273c-0.054,0.107-0.08,0.223-0.08,0.349c0,0.203,0.048,0.372,0.144,0.507
		c0.095,0.136,0.221,0.255,0.377,0.358c0.157,0.103,0.336,0.195,0.537,0.276c0.2,0.081,0.409,0.166,0.625,0.255
		c0.283,0.118,0.56,0.241,0.828,0.371s0.506,0.279,0.711,0.449s0.37,0.367,0.495,0.592s0.188,0.495,0.188,0.81
		c0,0.304-0.063,0.581-0.19,0.832s-0.311,0.466-0.549,0.646c-0.239,0.18-0.531,0.319-0.876,0.416
		c-0.346,0.097-0.738,0.146-1.178,0.146c-0.241,0-0.487-0.019-0.736-0.057c-0.25-0.038-0.487-0.085-0.711-0.143
		c-0.225-0.057-0.427-0.117-0.609-0.178c-0.182-0.062-0.328-0.118-0.438-0.168V15.72z"/>
	<path fill="#333333" d="M154.456,15.72h0.895l0.254,0.918c0.038,0.061,0.104,0.121,0.197,0.181c0.093,0.061,0.203,0.115,0.33,0.163
		c0.127,0.048,0.268,0.087,0.422,0.115c0.154,0.028,0.312,0.042,0.473,0.042c0.254,0,0.467-0.024,0.638-0.073
		c0.172-0.049,0.309-0.117,0.41-0.204s0.173-0.189,0.216-0.307c0.042-0.118,0.063-0.245,0.063-0.383c0-0.162-0.04-0.307-0.121-0.435
		c-0.08-0.127-0.201-0.249-0.361-0.364c-0.161-0.116-0.361-0.229-0.601-0.34c-0.238-0.111-0.519-0.228-0.841-0.35
		c-0.325-0.121-0.61-0.253-0.854-0.395c-0.243-0.142-0.445-0.302-0.606-0.48c-0.16-0.178-0.28-0.377-0.358-0.596
		s-0.117-0.468-0.117-0.747s0.066-0.532,0.199-0.756c0.134-0.225,0.319-0.418,0.556-0.58c0.237-0.162,0.518-0.287,0.841-0.374
		c0.324-0.087,0.677-0.131,1.058-0.131c0.274,0,0.526,0.017,0.755,0.051s0.432,0.074,0.609,0.118
		c0.178,0.045,0.332,0.09,0.464,0.134c0.131,0.045,0.239,0.078,0.323,0.1v1.543h-0.812l-0.272-0.848
		c-0.025-0.049-0.072-0.096-0.14-0.143c-0.068-0.046-0.151-0.088-0.251-0.124s-0.212-0.065-0.337-0.088
		c-0.124-0.022-0.255-0.033-0.39-0.033c-0.208,0-0.39,0.021-0.546,0.064c-0.157,0.042-0.288,0.101-0.394,0.176
		c-0.106,0.075-0.186,0.166-0.238,0.273c-0.053,0.107-0.079,0.223-0.079,0.349c0,0.203,0.047,0.372,0.143,0.507
		c0.095,0.136,0.221,0.255,0.378,0.358c0.156,0.103,0.335,0.195,0.536,0.276c0.201,0.081,0.409,0.166,0.625,0.255
		c0.284,0.118,0.56,0.241,0.828,0.371c0.27,0.129,0.506,0.279,0.711,0.449c0.206,0.17,0.371,0.367,0.495,0.592
		c0.125,0.225,0.188,0.495,0.188,0.81c0,0.304-0.063,0.581-0.19,0.832s-0.31,0.466-0.549,0.646s-0.531,0.319-0.876,0.416
		s-0.737,0.146-1.178,0.146c-0.241,0-0.486-0.019-0.736-0.057c-0.249-0.038-0.486-0.085-0.711-0.143
		c-0.224-0.057-0.427-0.117-0.609-0.178c-0.182-0.062-0.328-0.118-0.438-0.168V15.72z"/>
	<path fill="#333333" d="M52.767,32.758l1.066-0.146v-7.884l-0.997-0.162v-0.777h1.568c0.199,0,0.375,0,0.53,0
		c0.154,0,0.313,0,0.476,0c0.163,0,0.341,0,0.533,0c0.193,0,0.427,0,0.702,0c0.69,0,1.265,0.062,1.727,0.184
		c0.461,0.123,0.832,0.301,1.111,0.533c0.279,0.233,0.477,0.52,0.594,0.858c0.116,0.34,0.174,0.726,0.174,1.158
		c0,0.529-0.094,0.999-0.283,1.411c-0.188,0.412-0.449,0.761-0.784,1.046s-0.732,0.503-1.193,0.652
		c-0.461,0.15-0.965,0.225-1.511,0.225c-0.119,0-0.24,0-0.365,0c-0.125,0-0.241,0-0.35,0c-0.107,0-0.201-0.003-0.279-0.01
		c-0.078-0.006-0.132-0.014-0.162-0.021v2.786l1.714,0.146v0.691h-4.272V32.758z M55.319,29.064
		c0.119,0.029,0.267,0.044,0.444,0.044s0.417,0,0.717,0c0.279,0,0.55-0.041,0.812-0.123s0.494-0.223,0.695-0.423
		c0.201-0.2,0.362-0.467,0.482-0.802c0.121-0.335,0.181-0.757,0.181-1.266c0-0.37-0.045-0.686-0.136-0.944
		c-0.091-0.259-0.228-0.47-0.41-0.634s-0.411-0.284-0.686-0.36c-0.275-0.075-0.597-0.113-0.965-0.113
		c-0.148,0-0.276,0.004-0.384,0.013c-0.107,0.008-0.205,0.017-0.292,0.025c-0.086,0.008-0.166,0.018-0.238,0.028
		s-0.146,0.016-0.222,0.016V29.064z"/>
	<path fill="#333333" d="M61.165,32.764l0.997-0.099v-5.145l-0.901-0.254v-0.762l1.815-0.254h0.032l0.305,0.248v0.417l-0.013,0.86
		h0.013c0.021-0.044,0.064-0.113,0.13-0.207c0.065-0.094,0.15-0.198,0.254-0.312c0.104-0.113,0.225-0.231,0.365-0.354
		c0.14-0.122,0.295-0.234,0.466-0.335c0.172-0.101,0.357-0.183,0.556-0.246s0.413-0.096,0.641-0.096c0.097,0,0.18,0.007,0.248,0.02
		c0.068,0.014,0.125,0.031,0.171,0.053v1.605c-0.072-0.054-0.173-0.103-0.305-0.146c-0.131-0.043-0.279-0.064-0.444-0.064
		c-0.237,0-0.452,0.017-0.644,0.05c-0.193,0.033-0.366,0.078-0.521,0.134c-0.155,0.056-0.291,0.118-0.41,0.187
		c-0.119,0.069-0.222,0.137-0.311,0.204v4.446h1.669v0.736h-4.113V32.764z"/>
	<path fill="#333333" d="M67.062,29.838c0-0.579,0.098-1.093,0.295-1.542c0.196-0.449,0.456-0.826,0.777-1.132
		s0.688-0.538,1.102-0.698c0.412-0.16,0.834-0.24,1.266-0.24c0.571,0,1.064,0.094,1.479,0.279c0.415,0.187,0.755,0.441,1.022,0.765
		c0.267,0.324,0.464,0.707,0.593,1.147c0.129,0.441,0.194,0.917,0.194,1.427c0,0.587-0.097,1.104-0.292,1.554
		c-0.195,0.45-0.453,0.827-0.774,1.133s-0.69,0.536-1.104,0.691c-0.415,0.156-0.84,0.233-1.276,0.233
		c-0.571,0-1.063-0.093-1.476-0.278c-0.413-0.187-0.752-0.441-1.019-0.765c-0.267-0.324-0.464-0.707-0.593-1.147
		C67.126,30.824,67.062,30.348,67.062,29.838z M70.426,32.669c1.172,0,1.758-0.906,1.758-2.717c0-0.42-0.032-0.809-0.095-1.167
		c-0.063-0.357-0.165-0.669-0.305-0.933s-0.321-0.47-0.542-0.617c-0.223-0.148-0.494-0.223-0.816-0.223
		c-0.58,0-1.019,0.227-1.317,0.678c-0.299,0.452-0.448,1.132-0.448,2.039c0,0.42,0.033,0.811,0.098,1.17
		c0.066,0.359,0.168,0.671,0.308,0.933c0.14,0.262,0.322,0.467,0.546,0.615C69.838,32.595,70.109,32.669,70.426,32.669z"/>
	<path fill="#333333" d="M74.78,29.972c0-0.51,0.076-0.992,0.229-1.445s0.382-0.851,0.689-1.192
		c0.307-0.342,0.688-0.612,1.146-0.811s0.988-0.298,1.593-0.298c0.22,0,0.43,0.015,0.628,0.045c0.199,0.029,0.383,0.064,0.552,0.104
		s0.319,0.084,0.451,0.13c0.131,0.047,0.239,0.085,0.324,0.114l-0.063,1.865h-0.882l-0.292-1.12
		c-0.059-0.136-0.18-0.234-0.362-0.297c-0.182-0.062-0.389-0.093-0.622-0.093c-0.275,0-0.525,0.053-0.749,0.159
		c-0.224,0.105-0.418,0.265-0.581,0.476c-0.163,0.212-0.289,0.478-0.378,0.797s-0.133,0.69-0.133,1.113
		c-0.004,0.52,0.049,0.966,0.159,1.339s0.259,0.68,0.447,0.919c0.188,0.24,0.409,0.416,0.66,0.53
		c0.252,0.114,0.522,0.171,0.81,0.171c0.199,0,0.388-0.017,0.568-0.048c0.18-0.032,0.346-0.072,0.498-0.122s0.292-0.105,0.419-0.167
		s0.237-0.124,0.33-0.188l0.273,0.55c-0.11,0.114-0.25,0.228-0.419,0.34c-0.169,0.111-0.361,0.213-0.575,0.304
		c-0.213,0.092-0.441,0.165-0.682,0.223c-0.241,0.057-0.487,0.085-0.736,0.085c-0.55,0-1.03-0.089-1.441-0.267
		s-0.753-0.423-1.028-0.734s-0.481-0.68-0.619-1.104C74.856,30.925,74.785,30.465,74.78,29.972z"/>
	<path fill="#333333" d="M81.477,29.85c0-0.542,0.084-1.036,0.254-1.48c0.169-0.445,0.405-0.827,0.708-1.145
		c0.303-0.317,0.663-0.563,1.079-0.737c0.417-0.175,0.873-0.262,1.368-0.262c0.812,0,1.441,0.201,1.885,0.604
		s0.681,0.99,0.711,1.764c0.004,0.247,0.001,0.464-0.009,0.649c-0.011,0.186-0.033,0.349-0.067,0.487h-4.399
		c0.013,0.482,0.079,0.897,0.2,1.244c0.12,0.348,0.277,0.632,0.47,0.854c0.192,0.223,0.417,0.387,0.673,0.492
		c0.256,0.106,0.528,0.159,0.815,0.159c0.182,0,0.366-0.018,0.552-0.051c0.186-0.034,0.365-0.08,0.537-0.137
		c0.171-0.058,0.33-0.121,0.476-0.19c0.146-0.07,0.268-0.143,0.365-0.219l0.267,0.609c-0.119,0.123-0.273,0.242-0.463,0.358
		s-0.401,0.219-0.631,0.308c-0.231,0.089-0.478,0.16-0.74,0.216S85,33.456,84.734,33.456c-0.546,0-1.023-0.087-1.432-0.264
		c-0.408-0.176-0.748-0.424-1.019-0.743s-0.473-0.7-0.606-1.142C81.544,30.867,81.477,30.38,81.477,29.85z M85.959,28.994
		c0.008-0.072,0.015-0.151,0.019-0.236c0.004-0.086,0.006-0.163,0.006-0.232c0-0.21-0.025-0.408-0.076-0.594
		c-0.051-0.185-0.13-0.348-0.238-0.487c-0.108-0.14-0.249-0.25-0.422-0.329c-0.173-0.08-0.387-0.12-0.641-0.12
		c-0.216,0-0.417,0.031-0.603,0.095c-0.186,0.064-0.35,0.173-0.492,0.327c-0.142,0.154-0.256,0.359-0.343,0.616
		c-0.087,0.256-0.141,0.576-0.162,0.961H85.959z"/>
	<path fill="#333333" d="M88.752,31.32h0.895l0.254,0.918c0.038,0.061,0.104,0.121,0.197,0.181c0.093,0.061,0.203,0.115,0.33,0.163
		c0.127,0.049,0.268,0.087,0.422,0.115c0.154,0.028,0.312,0.042,0.473,0.042c0.254,0,0.467-0.024,0.638-0.072
		c0.172-0.049,0.308-0.117,0.41-0.204s0.173-0.189,0.216-0.307s0.063-0.245,0.063-0.383c0-0.162-0.04-0.307-0.121-0.435
		c-0.081-0.127-0.201-0.249-0.362-0.364s-0.361-0.229-0.6-0.34c-0.239-0.111-0.519-0.229-0.841-0.35
		c-0.326-0.121-0.61-0.253-0.854-0.395c-0.244-0.143-0.446-0.302-0.606-0.48c-0.161-0.178-0.28-0.377-0.358-0.596
		c-0.079-0.219-0.118-0.468-0.118-0.747s0.067-0.531,0.2-0.756c0.134-0.225,0.319-0.418,0.556-0.58s0.518-0.287,0.841-0.374
		c0.324-0.087,0.676-0.131,1.057-0.131c0.275,0,0.527,0.018,0.755,0.052s0.432,0.073,0.609,0.118s0.332,0.09,0.463,0.134
		c0.131,0.045,0.239,0.078,0.324,0.1v1.543h-0.812l-0.273-0.848c-0.025-0.049-0.072-0.096-0.14-0.143
		c-0.068-0.046-0.151-0.088-0.25-0.124c-0.1-0.036-0.212-0.065-0.337-0.088c-0.125-0.021-0.255-0.033-0.39-0.033
		c-0.208,0-0.389,0.021-0.546,0.064c-0.157,0.042-0.288,0.101-0.394,0.176s-0.185,0.166-0.238,0.273
		c-0.053,0.106-0.08,0.223-0.08,0.349c0,0.202,0.047,0.371,0.143,0.507c0.095,0.136,0.221,0.255,0.377,0.358
		c0.157,0.103,0.335,0.195,0.537,0.275c0.201,0.081,0.409,0.166,0.625,0.255c0.284,0.118,0.56,0.241,0.828,0.371
		c0.269,0.129,0.506,0.279,0.711,0.449c0.206,0.17,0.371,0.367,0.495,0.592c0.125,0.225,0.188,0.494,0.188,0.81
		c0,0.304-0.063,0.581-0.19,0.832c-0.127,0.251-0.31,0.466-0.549,0.646c-0.239,0.18-0.531,0.318-0.876,0.415
		c-0.345,0.098-0.738,0.146-1.178,0.146c-0.241,0-0.487-0.019-0.736-0.057s-0.487-0.085-0.711-0.143
		c-0.224-0.057-0.427-0.116-0.609-0.178s-0.328-0.117-0.438-0.168V31.32z"/>
	<path fill="#333333" d="M95.372,31.32h0.895l0.254,0.918c0.038,0.061,0.104,0.121,0.197,0.181c0.093,0.061,0.203,0.115,0.33,0.163
		c0.127,0.049,0.268,0.087,0.422,0.115c0.154,0.028,0.312,0.042,0.473,0.042c0.254,0,0.467-0.024,0.638-0.072
		c0.172-0.049,0.308-0.117,0.41-0.204s0.173-0.189,0.216-0.307s0.063-0.245,0.063-0.383c0-0.162-0.04-0.307-0.121-0.435
		c-0.081-0.127-0.201-0.249-0.362-0.364s-0.361-0.229-0.6-0.34c-0.239-0.111-0.519-0.229-0.841-0.35
		c-0.326-0.121-0.61-0.253-0.854-0.395c-0.244-0.143-0.446-0.302-0.606-0.48c-0.161-0.178-0.28-0.377-0.358-0.596
		c-0.079-0.219-0.118-0.468-0.118-0.747s0.067-0.531,0.2-0.756c0.134-0.225,0.319-0.418,0.556-0.58s0.518-0.287,0.841-0.374
		c0.324-0.087,0.676-0.131,1.057-0.131c0.275,0,0.527,0.018,0.755,0.052s0.432,0.073,0.609,0.118s0.332,0.09,0.463,0.134
		c0.131,0.045,0.239,0.078,0.324,0.1v1.543h-0.812l-0.273-0.848c-0.025-0.049-0.072-0.096-0.14-0.143
		c-0.068-0.046-0.151-0.088-0.25-0.124c-0.1-0.036-0.212-0.065-0.337-0.088c-0.125-0.021-0.255-0.033-0.39-0.033
		c-0.208,0-0.389,0.021-0.546,0.064c-0.157,0.042-0.288,0.101-0.394,0.176s-0.185,0.166-0.238,0.273
		c-0.053,0.106-0.08,0.223-0.08,0.349c0,0.202,0.047,0.371,0.143,0.507c0.095,0.136,0.221,0.255,0.377,0.358
		c0.157,0.103,0.335,0.195,0.537,0.275c0.201,0.081,0.409,0.166,0.625,0.255c0.284,0.118,0.56,0.241,0.828,0.371
		c0.269,0.129,0.506,0.279,0.711,0.449c0.206,0.17,0.371,0.367,0.495,0.592c0.125,0.225,0.188,0.494,0.188,0.81
		c0,0.304-0.063,0.581-0.19,0.832c-0.127,0.251-0.31,0.466-0.549,0.646c-0.239,0.18-0.531,0.318-0.876,0.415
		c-0.345,0.098-0.738,0.146-1.178,0.146c-0.241,0-0.487-0.019-0.736-0.057s-0.487-0.085-0.711-0.143
		c-0.224-0.057-0.427-0.116-0.609-0.178s-0.328-0.117-0.438-0.168V31.32z"/>
	<path fill="#333333" d="M101.733,32.758l1.028-0.108v-5.319l-0.92-0.26v-0.749l2.019-0.261h0.032l0.324,0.248v6.341l1.016,0.108
		v0.691h-3.498V32.758z M102.948,24.712c-0.104-0.045-0.192-0.105-0.264-0.185c-0.072-0.078-0.128-0.169-0.168-0.275
		c-0.041-0.106-0.061-0.22-0.061-0.343c0-0.135,0.02-0.265,0.061-0.387c0.04-0.123,0.1-0.231,0.181-0.327
		c0.081-0.095,0.18-0.171,0.298-0.229c0.119-0.057,0.256-0.085,0.413-0.085h0.006c0.14,0,0.263,0.024,0.372,0.073
		c0.107,0.049,0.199,0.114,0.272,0.197c0.074,0.082,0.13,0.176,0.168,0.282s0.057,0.216,0.057,0.33c0,0.14-0.02,0.272-0.061,0.396
		c-0.04,0.125-0.102,0.233-0.184,0.324c-0.083,0.091-0.187,0.163-0.312,0.216c-0.125,0.053-0.27,0.079-0.435,0.079h-0.006
		C103.165,24.779,103.052,24.756,102.948,24.712z"/>
	<path fill="#333333" d="M106.233,32.78l0.832-0.104v-5.153l-0.908-0.246v-0.802l1.879-0.254h0.032l0.298,0.247v0.539l-0.006,0.307
		c0.14-0.132,0.311-0.263,0.514-0.392c0.203-0.13,0.422-0.246,0.657-0.35c0.234-0.103,0.478-0.187,0.729-0.25
		c0.252-0.063,0.497-0.096,0.733-0.096c0.415,0,0.756,0.057,1.025,0.168c0.269,0.112,0.481,0.287,0.638,0.525
		s0.266,0.543,0.327,0.914c0.061,0.371,0.092,0.814,0.092,1.328v3.514l0.914,0.104v0.67h-3.187v-0.67l0.812-0.104v-3.507
		c0-0.335-0.016-0.625-0.048-0.871c-0.031-0.245-0.093-0.449-0.184-0.61c-0.091-0.161-0.22-0.28-0.388-0.359
		c-0.167-0.078-0.386-0.117-0.657-0.117c-0.161,0-0.325,0.02-0.492,0.059c-0.167,0.039-0.33,0.092-0.489,0.157
		c-0.158,0.065-0.31,0.14-0.454,0.222c-0.144,0.083-0.273,0.168-0.387,0.255v4.772l0.876,0.104v0.67h-3.161V32.78z"/>
	<path fill="#333333" d="M114.898,34.942c0-0.208,0.034-0.404,0.102-0.591s0.157-0.356,0.267-0.511s0.236-0.29,0.378-0.406
		c0.142-0.116,0.287-0.213,0.435-0.289c-0.199-0.109-0.351-0.251-0.457-0.425s-0.159-0.388-0.159-0.642
		c0-0.165,0.024-0.322,0.073-0.473c0.049-0.15,0.118-0.29,0.207-0.419s0.194-0.248,0.314-0.355c0.121-0.108,0.253-0.202,0.397-0.282
		c-0.423-0.186-0.748-0.446-0.974-0.782c-0.227-0.336-0.34-0.735-0.34-1.198c0-0.37,0.086-0.7,0.257-0.99
		c0.172-0.29,0.398-0.534,0.68-0.733c0.281-0.199,0.603-0.353,0.965-0.459c0.361-0.106,0.735-0.16,1.12-0.16h0.006
		c0.453,0,0.861,0.051,1.225,0.152s0.673,0.256,0.927,0.464c0.042-0.05,0.107-0.11,0.193-0.181c0.087-0.07,0.192-0.138,0.314-0.202
		s0.265-0.119,0.425-0.165c0.161-0.045,0.338-0.068,0.533-0.068h0.343v1.219h-1.333c0.072,0.14,0.127,0.287,0.165,0.444
		s0.057,0.328,0.057,0.516c0,0.365-0.076,0.697-0.229,0.998c-0.152,0.3-0.364,0.557-0.635,0.771
		c-0.271,0.214-0.589,0.38-0.955,0.497c-0.366,0.117-0.763,0.176-1.19,0.176h-0.006c-0.347,0-0.671-0.036-0.971-0.107
		c-0.114,0.102-0.206,0.221-0.276,0.358c-0.069,0.138-0.104,0.28-0.104,0.429c0,0.16,0.028,0.292,0.086,0.394
		c0.057,0.102,0.144,0.181,0.26,0.237c0.117,0.058,0.265,0.097,0.444,0.118c0.18,0.021,0.393,0.031,0.638,0.031h1.384
		c0.851,0,1.477,0.161,1.879,0.482c0.402,0.322,0.603,0.796,0.603,1.422c0,0.25-0.046,0.491-0.14,0.724s-0.224,0.448-0.394,0.647
		s-0.371,0.381-0.606,0.546c-0.234,0.165-0.493,0.307-0.774,0.425c-0.281,0.119-0.582,0.21-0.901,0.273
		c-0.319,0.063-0.648,0.096-0.987,0.096h-0.006c-0.592,0-1.094-0.048-1.504-0.144c-0.411-0.095-0.745-0.229-1.003-0.399
		c-0.258-0.172-0.444-0.379-0.559-0.622S114.898,35.242,114.898,34.942z M116.32,34.567c0,0.245,0.034,0.463,0.102,0.654
		c0.068,0.189,0.178,0.352,0.33,0.485c0.152,0.133,0.351,0.234,0.597,0.305c0.246,0.069,0.546,0.104,0.901,0.104h0.013
		c0.275,0,0.548-0.033,0.819-0.099s0.513-0.163,0.727-0.292c0.213-0.129,0.386-0.289,0.517-0.479
		c0.131-0.191,0.197-0.413,0.197-0.667c0-0.19-0.02-0.356-0.061-0.498c-0.04-0.142-0.116-0.26-0.229-0.353
		c-0.112-0.093-0.269-0.163-0.47-0.209c-0.201-0.047-0.46-0.07-0.777-0.07h-1.276c-0.186,0-0.361-0.007-0.524-0.022
		c-0.163-0.015-0.316-0.035-0.46-0.061c-0.11,0.136-0.205,0.301-0.286,0.496C116.36,34.057,116.32,34.292,116.32,34.567z
		 M118.148,30.092c0.25,0,0.461-0.036,0.635-0.106c0.173-0.071,0.315-0.175,0.425-0.312s0.19-0.302,0.241-0.498
		c0.051-0.195,0.076-0.418,0.076-0.666c0-0.538-0.119-0.929-0.355-1.174s-0.599-0.367-1.085-0.367h-0.006
		c-0.216,0-0.412,0.025-0.587,0.077c-0.175,0.051-0.327,0.134-0.454,0.248c-0.127,0.115-0.225,0.268-0.295,0.457
		c-0.069,0.189-0.104,0.423-0.104,0.699c0,0.229,0.026,0.443,0.079,0.643c0.053,0.2,0.138,0.374,0.254,0.521
		c0.117,0.148,0.271,0.265,0.464,0.35c0.192,0.085,0.428,0.128,0.708,0.128H118.148z"/>
	<path fill="#333333" d="M127.028,30.58h0.882l0.254,1.578c0.068,0.07,0.16,0.138,0.276,0.204c0.117,0.065,0.251,0.123,0.403,0.173
		c0.152,0.049,0.318,0.088,0.498,0.117c0.18,0.028,0.37,0.043,0.568,0.043c0.643,0,1.122-0.14,1.435-0.417
		c0.313-0.278,0.47-0.656,0.47-1.135c0-0.247-0.053-0.465-0.159-0.655c-0.106-0.189-0.256-0.361-0.451-0.516s-0.429-0.3-0.701-0.436
		c-0.273-0.136-0.575-0.276-0.905-0.421c-0.262-0.115-0.542-0.253-0.841-0.414c-0.298-0.16-0.575-0.354-0.831-0.584
		c-0.256-0.229-0.469-0.498-0.638-0.81c-0.169-0.311-0.254-0.675-0.254-1.091c0-0.35,0.074-0.675,0.222-0.974
		c0.148-0.298,0.358-0.556,0.632-0.772c0.272-0.215,0.604-0.384,0.993-0.506s0.827-0.183,1.314-0.183
		c0.309,0,0.598,0.021,0.867,0.063c0.269,0.042,0.512,0.091,0.729,0.146c0.218,0.055,0.409,0.108,0.571,0.159
		c0.163,0.051,0.293,0.083,0.391,0.095l-0.083,2.123h-0.851l-0.292-1.498c-0.038-0.041-0.1-0.082-0.184-0.123
		c-0.084-0.042-0.188-0.078-0.308-0.111c-0.121-0.033-0.254-0.06-0.4-0.08c-0.146-0.021-0.297-0.031-0.454-0.031
		c-0.584,0-1.016,0.114-1.295,0.344c-0.279,0.229-0.419,0.563-0.419,1.004c0,0.247,0.052,0.463,0.156,0.646
		c0.104,0.184,0.252,0.353,0.447,0.507c0.195,0.155,0.43,0.304,0.705,0.445c0.275,0.143,0.582,0.294,0.92,0.454
		c0.305,0.148,0.615,0.307,0.93,0.473c0.315,0.167,0.602,0.361,0.86,0.581c0.258,0.221,0.469,0.474,0.632,0.758
		c0.163,0.284,0.244,0.615,0.244,0.995c0,0.325-0.071,0.649-0.213,0.973c-0.142,0.324-0.355,0.615-0.641,0.875
		c-0.286,0.26-0.646,0.471-1.079,0.634c-0.434,0.162-0.945,0.243-1.533,0.243c-0.376,0-0.725-0.028-1.044-0.085
		c-0.32-0.058-0.605-0.122-0.857-0.193c-0.251-0.072-0.468-0.14-0.65-0.203s-0.324-0.1-0.425-0.108L127.028,30.58z"/>
	<path fill="#333333" d="M134.941,35.364c0.057,0.012,0.122,0.023,0.193,0.033s0.146,0.018,0.222,0.024
		c0.076,0.006,0.148,0.009,0.216,0.009c0.165,0,0.331-0.022,0.499-0.067c0.167-0.045,0.333-0.138,0.498-0.278
		s0.331-0.341,0.498-0.602c0.167-0.261,0.333-0.605,0.499-1.033h-0.717l-2.374-6.379l-0.603-0.165v-0.673h3.231v0.673l-0.997,0.165
		l1.225,3.834l0.565,1.841l0.508-1.848l1.149-3.834l-0.851-0.158v-0.673h2.666v0.673l-0.647,0.157
		c-0.643,1.972-1.15,3.501-1.521,4.585c-0.37,1.085-0.604,1.738-0.701,1.961c-0.199,0.495-0.394,0.929-0.584,1.303
		c-0.19,0.373-0.398,0.686-0.622,0.938s-0.476,0.44-0.755,0.566s-0.605,0.188-0.978,0.188c-0.063,0-0.132,0-0.207,0
		c-0.074,0-0.146-0.005-0.216-0.016c-0.069-0.011-0.133-0.021-0.19-0.031c-0.057-0.011-0.1-0.022-0.13-0.035v-1.2
		C134.842,35.337,134.883,35.351,134.941,35.364z"/>
	<path fill="#333333" d="M142.135,31.32h0.895l0.254,0.918c0.038,0.061,0.104,0.121,0.197,0.181c0.093,0.061,0.203,0.115,0.33,0.163
		c0.127,0.049,0.268,0.087,0.422,0.115c0.154,0.028,0.312,0.042,0.473,0.042c0.254,0,0.467-0.024,0.638-0.072
		c0.172-0.049,0.308-0.117,0.41-0.204s0.173-0.189,0.216-0.307s0.063-0.245,0.063-0.383c0-0.162-0.04-0.307-0.121-0.435
		c-0.081-0.127-0.201-0.249-0.362-0.364s-0.361-0.229-0.6-0.34c-0.239-0.111-0.519-0.229-0.841-0.35
		c-0.326-0.121-0.61-0.253-0.854-0.395c-0.244-0.143-0.446-0.302-0.606-0.48c-0.161-0.178-0.28-0.377-0.358-0.596
		c-0.079-0.219-0.118-0.468-0.118-0.747s0.067-0.531,0.2-0.756c0.134-0.225,0.319-0.418,0.556-0.58s0.518-0.287,0.841-0.374
		c0.324-0.087,0.676-0.131,1.057-0.131c0.275,0,0.527,0.018,0.755,0.052s0.432,0.073,0.609,0.118s0.332,0.09,0.463,0.134
		c0.131,0.045,0.239,0.078,0.324,0.1v1.543h-0.812l-0.273-0.848c-0.025-0.049-0.072-0.096-0.14-0.143
		c-0.068-0.046-0.151-0.088-0.25-0.124c-0.1-0.036-0.212-0.065-0.337-0.088c-0.125-0.021-0.255-0.033-0.39-0.033
		c-0.208,0-0.389,0.021-0.546,0.064c-0.157,0.042-0.288,0.101-0.394,0.176s-0.185,0.166-0.238,0.273
		c-0.053,0.106-0.08,0.223-0.08,0.349c0,0.202,0.047,0.371,0.143,0.507c0.095,0.136,0.221,0.255,0.377,0.358
		c0.157,0.103,0.335,0.195,0.537,0.275c0.201,0.081,0.409,0.166,0.625,0.255c0.284,0.118,0.56,0.241,0.828,0.371
		c0.269,0.129,0.506,0.279,0.711,0.449c0.206,0.17,0.371,0.367,0.495,0.592c0.125,0.225,0.188,0.494,0.188,0.81
		c0,0.304-0.063,0.581-0.19,0.832c-0.127,0.251-0.31,0.466-0.549,0.646c-0.239,0.18-0.531,0.318-0.876,0.415
		c-0.345,0.098-0.738,0.146-1.178,0.146c-0.241,0-0.487-0.019-0.736-0.057s-0.487-0.085-0.711-0.143
		c-0.224-0.057-0.427-0.116-0.609-0.178s-0.328-0.117-0.438-0.168V31.32z"/>
	<path fill="#333333" d="M149.333,27.14h-0.907v-0.603c0.055-0.014,0.117-0.033,0.187-0.058c0.07-0.024,0.14-0.05,0.21-0.074
		c0.069-0.024,0.133-0.049,0.19-0.074c0.057-0.024,0.099-0.046,0.124-0.063c0.071-0.055,0.135-0.123,0.19-0.206
		c0.055-0.083,0.105-0.189,0.152-0.32c0.033-0.081,0.074-0.189,0.12-0.327c0.047-0.137,0.092-0.278,0.137-0.424
		c0.044-0.146,0.086-0.287,0.124-0.422c0.038-0.134,0.065-0.24,0.082-0.316h0.825l0.013,1.98h2.133v0.907h-2.126v3.761
		c0,0.357,0.006,0.637,0.019,0.84s0.044,0.354,0.092,0.454c0.049,0.099,0.122,0.161,0.22,0.187c0.097,0.024,0.229,0.037,0.394,0.037
		h0.006c0.119,0,0.247-0.009,0.384-0.024c0.138-0.017,0.271-0.037,0.397-0.062c0.127-0.025,0.244-0.052,0.352-0.08
		c0.108-0.029,0.194-0.056,0.258-0.08h0.006l0.216,0.607c-0.097,0.078-0.23,0.157-0.399,0.237c-0.17,0.079-0.355,0.151-0.559,0.215
		s-0.413,0.117-0.629,0.16s-0.419,0.063-0.609,0.063h-0.013c-0.249,0-0.473-0.024-0.67-0.074c-0.196-0.05-0.362-0.132-0.498-0.248
		c-0.135-0.116-0.239-0.269-0.311-0.457c-0.072-0.188-0.108-0.42-0.108-0.693V27.14z"/>
	<path fill="#333333" d="M153.834,29.85c0-0.542,0.084-1.036,0.254-1.48c0.169-0.445,0.405-0.827,0.707-1.145
		c0.303-0.317,0.663-0.563,1.079-0.737c0.417-0.175,0.873-0.262,1.368-0.262c0.812,0,1.441,0.201,1.886,0.604
		s0.681,0.99,0.711,1.764c0.004,0.247,0.001,0.464-0.01,0.649s-0.033,0.349-0.066,0.487h-4.399c0.013,0.482,0.079,0.897,0.2,1.244
		c0.12,0.348,0.277,0.632,0.47,0.854c0.192,0.223,0.417,0.387,0.673,0.492c0.256,0.106,0.528,0.159,0.815,0.159
		c0.183,0,0.366-0.018,0.553-0.051c0.186-0.034,0.364-0.08,0.536-0.137c0.171-0.058,0.33-0.121,0.476-0.19
		c0.146-0.07,0.269-0.143,0.365-0.219l0.267,0.609c-0.118,0.123-0.272,0.242-0.463,0.358s-0.401,0.219-0.632,0.308
		s-0.478,0.16-0.739,0.216c-0.263,0.056-0.527,0.082-0.794,0.082c-0.546,0-1.022-0.087-1.432-0.264
		c-0.408-0.176-0.747-0.424-1.019-0.743c-0.271-0.319-0.473-0.7-0.606-1.142C153.901,30.867,153.834,30.38,153.834,29.85z
		 M158.316,28.994c0.008-0.072,0.015-0.151,0.019-0.236c0.005-0.086,0.007-0.163,0.007-0.232c0-0.21-0.025-0.408-0.076-0.594
		c-0.051-0.185-0.131-0.348-0.238-0.487c-0.108-0.14-0.249-0.25-0.422-0.329c-0.174-0.08-0.388-0.12-0.642-0.12
		c-0.216,0-0.417,0.031-0.603,0.095c-0.187,0.064-0.351,0.173-0.492,0.327s-0.256,0.359-0.343,0.616
		c-0.087,0.256-0.141,0.576-0.162,0.961H158.316z"/>
	<path fill="#333333" d="M161.038,32.786l0.794-0.104v-5.159l-0.908-0.246v-0.802l1.873-0.254h0.031l0.305,0.247v0.539l-0.013,0.307
		c0.14-0.132,0.314-0.264,0.523-0.396c0.21-0.132,0.435-0.248,0.673-0.349c0.239-0.101,0.481-0.184,0.728-0.247
		c0.245-0.063,0.476-0.096,0.691-0.096c0.47,0,0.846,0.078,1.127,0.235c0.281,0.156,0.496,0.399,0.645,0.729
		c0.118-0.102,0.274-0.209,0.469-0.323c0.195-0.114,0.408-0.22,0.639-0.314c0.23-0.096,0.47-0.174,0.717-0.235
		c0.248-0.061,0.483-0.092,0.708-0.092c0.415,0,0.759,0.058,1.031,0.171c0.273,0.114,0.489,0.289,0.647,0.525
		c0.159,0.236,0.27,0.538,0.334,0.905c0.062,0.367,0.095,0.806,0.095,1.315v3.538l0.907,0.104v0.664h-3.109v-0.664l0.748-0.11
		v-3.477c0-0.338-0.018-0.633-0.054-0.883s-0.104-0.457-0.203-0.623c-0.1-0.165-0.239-0.288-0.419-0.368
		c-0.18-0.081-0.411-0.121-0.695-0.121c-0.139,0-0.283,0.018-0.432,0.053c-0.147,0.035-0.295,0.083-0.44,0.143
		c-0.146,0.059-0.284,0.125-0.413,0.197s-0.244,0.146-0.346,0.221c0.042,0.193,0.072,0.404,0.089,0.634s0.025,0.479,0.025,0.75
		v3.475l0.927,0.11v0.664h-3.225v-0.664l0.845-0.11v-3.511c0-0.335-0.015-0.626-0.045-0.872c-0.029-0.246-0.091-0.449-0.184-0.611
		c-0.094-0.161-0.224-0.281-0.391-0.359s-0.386-0.118-0.657-0.118c-0.156,0-0.316,0.019-0.479,0.057
		c-0.162,0.037-0.322,0.088-0.479,0.151c-0.157,0.064-0.306,0.137-0.448,0.219c-0.142,0.081-0.27,0.168-0.384,0.261v4.784
		l0.851,0.11v0.664h-3.098V32.786z"/>
</g>
<g id="Rounded">
	<path fill="#333333" d="M22.57,26.191c-3.8-3.549-8.602-6.034-13.947-6.994c-2.526-0.438-4.844,1.566-4.844,4.134v13.028
		c0,3.508,1.503,5.345,3.57,5.616c5.22,0.668,9.959,2.819,13.842,5.992c0.731,0.605,1.921,0.668,2.652,0.084
		c3.904-3.194,8.685-5.387,13.947-6.055c1.963-0.271,3.57-2.213,3.57-4.217c0-4.029,0-10.23,0-14.448
		c0-2.568-2.317-4.572-4.844-4.134C31.172,20.158,26.37,22.642,22.57,26.191z M22.57,18.78c3.466,0,6.263-2.798,6.263-6.263
		s-2.798-6.263-6.263-6.263s-6.263,2.798-6.263,6.263S19.105,18.78,22.57,18.78z"/>
</g>
</svg>
