<?xml version="1.0" encoding="utf-8"?>
<!-- Generator: Adobe Illustrator 17.0.0, SVG Export Plug-In . SVG Version: 6.00 Build 0)  -->
<!DOCTYPE svg PUBLIC "-//W3C//DTD SVG 1.1//EN" "http://www.w3.org/Graphics/SVG/1.1/DTD/svg11.dtd">
<svg version="1.1" id="Layer_1" xmlns="http://www.w3.org/2000/svg" xmlns:xlink="http://www.w3.org/1999/xlink" x="0px" y="0px"
	 width="177.511px" height="57.165px" viewBox="0 0 177.511 57.165" enable-background="new 0 0 177.511 57.165"
	 xml:space="preserve">
<g>
	<path fill="#FFFFFF" d="M57.488,44.339c0,0.943-0.256,1.664-0.768,2.162c-0.512,0.499-1.248,0.748-2.209,0.748h-1.582v-5.711h1.75
		c0.888,0,1.578,0.246,2.07,0.738S57.488,43.456,57.488,44.339z M56.785,44.362c0-0.744-0.187-1.306-0.561-1.684
		c-0.374-0.377-0.929-0.566-1.666-0.566h-0.965v4.562h0.809c0.792,0,1.387-0.194,1.785-0.584
		C56.586,45.702,56.785,45.126,56.785,44.362z"/>
	<path fill="#FFFFFF" d="M60.472,47.327c-0.633,0-1.132-0.192-1.498-0.578c-0.366-0.385-0.549-0.92-0.549-1.605
		c0-0.689,0.17-1.238,0.51-1.645s0.796-0.609,1.369-0.609c0.537,0,0.961,0.177,1.273,0.529c0.312,0.354,0.469,0.818,0.469,1.396
		v0.41h-2.949c0.013,0.503,0.14,0.885,0.381,1.145c0.241,0.261,0.58,0.391,1.018,0.391c0.461,0,0.917-0.096,1.367-0.289v0.578
		c-0.229,0.1-0.446,0.17-0.65,0.213S60.761,47.327,60.472,47.327z M60.297,43.433c-0.344,0-0.618,0.112-0.822,0.336
		c-0.205,0.225-0.325,0.534-0.361,0.93h2.238c0-0.408-0.091-0.722-0.273-0.939C60.896,43.542,60.635,43.433,60.297,43.433z"/>
	<path fill="#FFFFFF" d="M65.328,47.249v-5.711h0.664v5.109h2.52v0.602H65.328z"/>
	<path fill="#FFFFFF" d="M72.015,47.249l-0.129-0.609h-0.031c-0.213,0.269-0.426,0.45-0.639,0.545
		c-0.212,0.096-0.477,0.143-0.795,0.143c-0.424,0-0.757-0.109-0.998-0.328s-0.361-0.529-0.361-0.934
		c0-0.864,0.691-1.317,2.074-1.359l0.727-0.023v-0.266c0-0.336-0.072-0.584-0.217-0.744s-0.375-0.24-0.693-0.24
		c-0.357,0-0.76,0.109-1.211,0.328l-0.199-0.496c0.211-0.114,0.442-0.204,0.693-0.27c0.251-0.064,0.503-0.098,0.756-0.098
		c0.51,0,0.889,0.113,1.135,0.34s0.369,0.59,0.369,1.09v2.922H72.015z M70.55,46.792c0.404,0,0.721-0.11,0.951-0.332
		c0.23-0.221,0.346-0.531,0.346-0.93v-0.387l-0.648,0.027c-0.516,0.019-0.887,0.099-1.115,0.24
		c-0.228,0.143-0.342,0.363-0.342,0.662c0,0.234,0.071,0.413,0.213,0.535C70.097,46.732,70.295,46.792,70.55,46.792z"/>
	<path fill="#FFFFFF" d="M79.23,45.73c0,0.503-0.182,0.895-0.547,1.176s-0.859,0.422-1.484,0.422c-0.677,0-1.198-0.087-1.562-0.262
		v-0.641c0.234,0.1,0.49,0.178,0.766,0.234c0.276,0.058,0.549,0.086,0.82,0.086c0.443,0,0.776-0.084,1-0.252
		s0.336-0.401,0.336-0.701c0-0.197-0.04-0.359-0.119-0.486c-0.08-0.126-0.212-0.242-0.398-0.35c-0.186-0.106-0.469-0.228-0.85-0.363
		c-0.531-0.189-0.911-0.415-1.139-0.676c-0.228-0.26-0.342-0.6-0.342-1.02c0-0.439,0.166-0.79,0.496-1.051
		c0.331-0.26,0.768-0.391,1.312-0.391c0.568,0,1.09,0.104,1.566,0.312l-0.207,0.578c-0.471-0.197-0.93-0.297-1.375-0.297
		c-0.352,0-0.626,0.076-0.824,0.227c-0.198,0.151-0.297,0.361-0.297,0.629c0,0.198,0.037,0.36,0.109,0.486
		c0.073,0.127,0.196,0.242,0.369,0.348s0.438,0.223,0.795,0.35c0.599,0.214,1.011,0.443,1.236,0.688
		C79.117,45.022,79.23,45.339,79.23,45.73z"/>
	<path fill="#FFFFFF" d="M82.933,47.249l-0.129-0.609h-0.031c-0.213,0.269-0.426,0.45-0.639,0.545
		c-0.212,0.096-0.477,0.143-0.795,0.143c-0.424,0-0.757-0.109-0.998-0.328s-0.361-0.529-0.361-0.934
		c0-0.864,0.691-1.317,2.074-1.359l0.727-0.023v-0.266c0-0.336-0.072-0.584-0.217-0.744s-0.375-0.24-0.693-0.24
		c-0.357,0-0.76,0.109-1.211,0.328l-0.199-0.496c0.211-0.114,0.442-0.204,0.693-0.27c0.251-0.064,0.503-0.098,0.756-0.098
		c0.51,0,0.889,0.113,1.135,0.34s0.369,0.59,0.369,1.09v2.922H82.933z M81.468,46.792c0.404,0,0.721-0.11,0.951-0.332
		c0.23-0.221,0.346-0.531,0.346-0.93v-0.387l-0.648,0.027c-0.516,0.019-0.887,0.099-1.115,0.24
		c-0.228,0.143-0.342,0.363-0.342,0.662c0,0.234,0.071,0.413,0.213,0.535C81.015,46.732,81.213,46.792,81.468,46.792z"/>
	<path fill="#FFFFFF" d="M85.398,47.249H84.75v-6.078h0.648V47.249z"/>
	<path fill="#FFFFFF" d="M87.422,47.249h-0.648v-6.078h0.648V47.249z"/>
	<path fill="#FFFFFF" d="M90.605,47.327c-0.633,0-1.132-0.192-1.498-0.578c-0.366-0.385-0.549-0.92-0.549-1.605
		c0-0.689,0.17-1.238,0.51-1.645s0.796-0.609,1.369-0.609c0.537,0,0.961,0.177,1.273,0.529c0.312,0.354,0.469,0.818,0.469,1.396
		v0.41H89.23c0.013,0.503,0.14,0.885,0.381,1.145c0.241,0.261,0.58,0.391,1.018,0.391c0.461,0,0.917-0.096,1.367-0.289v0.578
		c-0.229,0.1-0.446,0.17-0.65,0.213S90.894,47.327,90.605,47.327z M90.429,43.433c-0.344,0-0.618,0.112-0.822,0.336
		c-0.205,0.225-0.325,0.534-0.361,0.93h2.238c0-0.408-0.091-0.722-0.273-0.939C91.029,43.542,90.768,43.433,90.429,43.433z"/>
	<path fill="#FFFFFF" d="M99.773,41.538v3.695c0,0.651-0.197,1.163-0.59,1.535c-0.393,0.373-0.934,0.559-1.621,0.559
		s-1.219-0.188-1.596-0.562s-0.564-0.891-0.564-1.547v-3.68h0.664v3.727c0,0.477,0.13,0.843,0.391,1.098
		c0.26,0.256,0.643,0.383,1.148,0.383c0.482,0,0.853-0.128,1.113-0.385c0.26-0.256,0.391-0.624,0.391-1.104v-3.719H99.773z"/>
	<path fill="#FFFFFF" d="M104.117,47.249v-2.77c0-0.349-0.08-0.609-0.238-0.781s-0.408-0.258-0.746-0.258
		c-0.448,0-0.776,0.121-0.984,0.363s-0.312,0.643-0.312,1.199v2.246h-0.648v-4.281h0.527l0.105,0.586h0.031
		c0.133-0.211,0.319-0.374,0.559-0.49c0.24-0.115,0.506-0.174,0.801-0.174c0.516,0,0.904,0.125,1.164,0.373
		c0.26,0.249,0.391,0.646,0.391,1.193v2.793H104.117z"/>
	<path fill="#FFFFFF" d="M106.043,41.808c0-0.148,0.037-0.257,0.109-0.326c0.073-0.068,0.164-0.104,0.273-0.104
		c0.104,0,0.194,0.035,0.27,0.105s0.113,0.179,0.113,0.324c0,0.146-0.038,0.255-0.113,0.326c-0.076,0.072-0.166,0.107-0.27,0.107
		c-0.109,0-0.201-0.035-0.273-0.107C106.079,42.063,106.043,41.954,106.043,41.808z M106.746,47.249h-0.648v-4.281h0.648V47.249z"/>
	<path fill="#FFFFFF" d="M109.058,47.249l-1.625-4.281h0.695l0.922,2.539c0.208,0.594,0.331,0.979,0.367,1.156h0.031
		c0.029-0.138,0.119-0.424,0.271-0.857s0.494-1.379,1.025-2.838h0.695l-1.625,4.281H109.058z"/>
	<path fill="#FFFFFF" d="M113.937,47.327c-0.633,0-1.132-0.192-1.498-0.578c-0.366-0.385-0.549-0.92-0.549-1.605
		c0-0.689,0.17-1.238,0.51-1.645s0.796-0.609,1.369-0.609c0.537,0,0.961,0.177,1.273,0.529c0.312,0.354,0.469,0.818,0.469,1.396
		v0.41h-2.949c0.013,0.503,0.14,0.885,0.381,1.145c0.241,0.261,0.58,0.391,1.018,0.391c0.461,0,0.917-0.096,1.367-0.289v0.578
		c-0.229,0.1-0.446,0.17-0.65,0.213S114.226,47.327,113.937,47.327z M113.761,43.433c-0.344,0-0.618,0.112-0.822,0.336
		c-0.205,0.225-0.325,0.534-0.361,0.93h2.238c0-0.408-0.091-0.722-0.273-0.939C114.361,43.542,114.1,43.433,113.761,43.433z"/>
	<path fill="#FFFFFF" d="M118.57,42.89c0.19,0,0.361,0.016,0.512,0.047l-0.09,0.602c-0.177-0.039-0.333-0.059-0.469-0.059
		c-0.346,0-0.643,0.141-0.889,0.422s-0.369,0.632-0.369,1.051v2.297h-0.648v-4.281h0.535l0.074,0.793h0.031
		c0.159-0.278,0.35-0.493,0.574-0.645C118.056,42.966,118.302,42.89,118.57,42.89z"/>
	<path fill="#FFFFFF" d="M122.644,46.081c0,0.398-0.148,0.706-0.445,0.922c-0.297,0.217-0.713,0.324-1.25,0.324
		c-0.568,0-1.01-0.09-1.328-0.27v-0.602c0.206,0.104,0.426,0.187,0.662,0.246c0.236,0.061,0.463,0.09,0.682,0.09
		c0.338,0,0.599-0.054,0.781-0.162c0.182-0.107,0.273-0.272,0.273-0.494c0-0.166-0.072-0.309-0.217-0.428
		c-0.145-0.118-0.426-0.258-0.846-0.42c-0.398-0.148-0.682-0.277-0.85-0.389c-0.168-0.11-0.293-0.236-0.375-0.377
		s-0.123-0.309-0.123-0.504c0-0.349,0.142-0.624,0.426-0.826c0.284-0.201,0.673-0.303,1.168-0.303c0.461,0,0.912,0.094,1.352,0.281
		l-0.23,0.527c-0.43-0.177-0.819-0.266-1.168-0.266c-0.307,0-0.539,0.049-0.695,0.145c-0.156,0.097-0.234,0.229-0.234,0.398
		c0,0.115,0.029,0.213,0.088,0.293c0.059,0.081,0.153,0.158,0.283,0.23c0.13,0.073,0.38,0.179,0.75,0.316
		c0.508,0.186,0.851,0.371,1.029,0.559S122.644,45.798,122.644,46.081z"/>
	<path fill="#FFFFFF" d="M123.644,41.808c0-0.148,0.037-0.257,0.109-0.326c0.073-0.068,0.164-0.104,0.273-0.104
		c0.104,0,0.194,0.035,0.27,0.105s0.113,0.179,0.113,0.324c0,0.146-0.038,0.255-0.113,0.326c-0.076,0.072-0.166,0.107-0.27,0.107
		c-0.109,0-0.201-0.035-0.273-0.107C123.681,42.063,123.644,41.954,123.644,41.808z M124.347,47.249h-0.648v-4.281h0.648V47.249z"/>
	<path fill="#FFFFFF" d="M127.105,46.792c0.115,0,0.225-0.008,0.332-0.025c0.107-0.017,0.191-0.034,0.254-0.053v0.496
		c-0.07,0.034-0.174,0.062-0.311,0.084c-0.137,0.022-0.26,0.033-0.369,0.033c-0.828,0-1.242-0.436-1.242-1.309v-2.547h-0.613v-0.312
		l0.613-0.27l0.273-0.914h0.375v0.992h1.242v0.504h-1.242v2.52c0,0.258,0.061,0.456,0.184,0.594
		C126.724,46.724,126.892,46.792,127.105,46.792z"/>
	<path fill="#FFFFFF" d="M127.867,42.968h0.695l0.938,2.441c0.206,0.558,0.333,0.96,0.383,1.207h0.031
		c0.034-0.133,0.105-0.359,0.213-0.682c0.108-0.321,0.461-1.311,1.061-2.967h0.695l-1.84,4.875
		c-0.182,0.482-0.395,0.824-0.639,1.025c-0.244,0.202-0.542,0.303-0.896,0.303c-0.198,0-0.393-0.021-0.586-0.066v-0.52
		c0.143,0.031,0.303,0.047,0.48,0.047c0.445,0,0.763-0.25,0.953-0.75l0.238-0.609L127.867,42.968z"/>
</g>
<g>
	<path fill="#FFFFFF" d="M56.759,19.084c-0.69,0-1.296-0.114-1.819-0.343c-0.522-0.229-0.96-0.555-1.313-0.977
		c-0.354-0.423-0.619-0.93-0.797-1.521c-0.178-0.592-0.267-1.244-0.267-1.957c0-0.745,0.111-1.418,0.333-2.018
		c0.223-0.6,0.53-1.112,0.924-1.536c0.394-0.425,0.858-0.751,1.394-0.979c0.535-0.229,1.116-0.344,1.742-0.344
		c0.69,0,1.295,0.113,1.815,0.339c0.521,0.225,0.954,0.544,1.301,0.955c0.347,0.412,0.607,0.909,0.781,1.492
		c0.173,0.584,0.26,1.23,0.26,1.942c0,0.749-0.11,1.427-0.33,2.032c-0.22,0.606-0.524,1.124-0.911,1.555
		c-0.388,0.43-0.847,0.764-1.378,1.002C57.965,18.965,57.386,19.084,56.759,19.084z M56.842,18.335c0.398,0,0.759-0.087,1.082-0.262
		c0.324-0.175,0.6-0.436,0.829-0.783s0.405-0.784,0.53-1.311c0.125-0.525,0.188-1.141,0.188-1.843c0-0.617-0.058-1.172-0.175-1.665
		c-0.116-0.493-0.287-0.912-0.511-1.255s-0.5-0.606-0.825-0.789c-0.326-0.184-0.696-0.274-1.111-0.274
		c-0.398,0-0.758,0.083-1.083,0.249c-0.323,0.167-0.601,0.421-0.831,0.762c-0.231,0.342-0.409,0.772-0.533,1.292
		c-0.125,0.521-0.188,1.132-0.188,1.834c0,0.617,0.058,1.175,0.175,1.675c0.116,0.499,0.287,0.925,0.511,1.276
		s0.5,0.621,0.825,0.811C56.05,18.24,56.423,18.335,56.842,18.335z"/>
	<path fill="#FFFFFF" d="M62.187,18.407l0.832-0.104v-5.152l-0.908-0.246v-0.803l1.879-0.254h0.032l0.298,0.248v0.539l-0.006,0.306
		c0.14-0.131,0.311-0.262,0.514-0.392c0.203-0.129,0.422-0.246,0.657-0.349c0.234-0.104,0.478-0.187,0.729-0.25
		c0.252-0.064,0.497-0.096,0.733-0.096c0.415,0,0.756,0.056,1.025,0.168c0.269,0.111,0.481,0.287,0.638,0.525
		s0.266,0.543,0.327,0.914c0.061,0.371,0.092,0.813,0.092,1.327v3.514l0.914,0.104v0.671h-3.187v-0.671l0.812-0.104v-3.507
		c0-0.334-0.016-0.625-0.048-0.87c-0.031-0.246-0.093-0.449-0.184-0.61c-0.091-0.161-0.22-0.281-0.388-0.359
		c-0.167-0.079-0.386-0.118-0.657-0.118c-0.161,0-0.325,0.02-0.492,0.06c-0.167,0.039-0.33,0.091-0.489,0.156
		c-0.158,0.065-0.31,0.14-0.454,0.223s-0.273,0.168-0.387,0.255v4.771l0.876,0.104v0.671h-3.161V18.407z"/>
	<path fill="#FFFFFF" d="M70.731,18.386l1.028-0.107V9.423l-1.041-0.127V8.693l2.165-0.273h0.013l0.311,0.216v9.643l1.079,0.107
		v0.692h-3.555V18.386z"/>
	<path fill="#FFFFFF" d="M75.13,18.386l1.028-0.107v-5.319l-0.92-0.261v-0.749l2.019-0.26h0.032l0.324,0.247v6.342l1.016,0.107
		v0.692H75.13V18.386z M76.345,10.341c-0.104-0.045-0.192-0.106-0.264-0.185s-0.128-0.17-0.168-0.276
		c-0.041-0.105-0.061-0.22-0.061-0.343c0-0.135,0.02-0.265,0.061-0.387c0.04-0.123,0.1-0.231,0.181-0.327
		c0.081-0.095,0.18-0.171,0.298-0.229c0.119-0.057,0.256-0.086,0.413-0.086h0.006c0.14,0,0.263,0.024,0.372,0.073
		c0.107,0.049,0.199,0.114,0.272,0.197c0.074,0.082,0.13,0.176,0.168,0.282c0.038,0.105,0.057,0.216,0.057,0.33
		c0,0.14-0.02,0.271-0.061,0.396c-0.04,0.125-0.102,0.232-0.184,0.324c-0.083,0.091-0.187,0.162-0.312,0.216
		c-0.125,0.053-0.27,0.079-0.435,0.079h-0.006C76.562,10.407,76.449,10.385,76.345,10.341z"/>
	<path fill="#FFFFFF" d="M79.63,18.407l0.832-0.104v-5.152l-0.908-0.246v-0.803l1.879-0.254h0.032l0.298,0.248v0.539l-0.006,0.306
		c0.14-0.131,0.311-0.262,0.514-0.392c0.203-0.129,0.422-0.246,0.657-0.349c0.234-0.104,0.478-0.187,0.729-0.25
		c0.252-0.064,0.497-0.096,0.733-0.096c0.415,0,0.756,0.056,1.025,0.168c0.269,0.111,0.481,0.287,0.638,0.525
		s0.266,0.543,0.327,0.914c0.061,0.371,0.092,0.813,0.092,1.327v3.514l0.914,0.104v0.671H84.2v-0.671l0.812-0.104v-3.507
		c0-0.334-0.016-0.625-0.048-0.87c-0.031-0.246-0.093-0.449-0.184-0.61c-0.091-0.161-0.22-0.281-0.388-0.359
		c-0.167-0.079-0.386-0.118-0.657-0.118c-0.161,0-0.325,0.02-0.492,0.06c-0.167,0.039-0.33,0.091-0.489,0.156
		c-0.158,0.065-0.31,0.14-0.454,0.223s-0.273,0.168-0.387,0.255v4.771l0.876,0.104v0.671H79.63V18.407z"/>
	<path fill="#FFFFFF" d="M88.25,15.479c0-0.542,0.084-1.036,0.254-1.481s0.405-0.826,0.708-1.145
		c0.303-0.317,0.663-0.563,1.079-0.737c0.417-0.174,0.873-0.261,1.368-0.261c0.812,0,1.441,0.201,1.885,0.604
		c0.444,0.401,0.681,0.989,0.711,1.763c0.004,0.248,0.001,0.465-0.009,0.65c-0.011,0.186-0.033,0.348-0.067,0.487H89.78
		c0.013,0.482,0.079,0.896,0.2,1.244c0.12,0.347,0.277,0.632,0.47,0.854c0.192,0.223,0.417,0.386,0.673,0.492
		c0.256,0.105,0.528,0.158,0.815,0.158c0.182,0,0.366-0.017,0.552-0.051c0.186-0.033,0.365-0.079,0.537-0.136
		c0.171-0.058,0.33-0.121,0.476-0.19c0.146-0.07,0.268-0.144,0.365-0.22l0.267,0.609c-0.119,0.123-0.273,0.242-0.463,0.359
		c-0.19,0.116-0.401,0.219-0.631,0.308c-0.231,0.089-0.478,0.16-0.74,0.216c-0.262,0.055-0.527,0.082-0.793,0.082
		c-0.546,0-1.023-0.088-1.432-0.264c-0.408-0.176-0.748-0.424-1.019-0.744c-0.271-0.319-0.473-0.699-0.606-1.141
		C88.317,16.494,88.25,16.009,88.25,15.479z M92.732,14.622c0.008-0.073,0.015-0.152,0.019-0.237s0.006-0.162,0.006-0.231
		c0-0.211-0.025-0.408-0.076-0.594s-0.13-0.348-0.238-0.487c-0.108-0.141-0.249-0.25-0.422-0.33s-0.387-0.12-0.641-0.12
		c-0.216,0-0.417,0.032-0.603,0.096s-0.35,0.173-0.492,0.327c-0.142,0.154-0.256,0.359-0.343,0.615
		c-0.087,0.256-0.141,0.576-0.162,0.962H92.732z"/>
	<path fill="#FFFFFF" d="M99.301,18.386l1.066-0.146v-7.885l-0.997-0.162V9.417h1.568c0.199,0,0.375,0,0.53,0
		c0.154,0,0.313,0,0.476,0c0.163,0,0.341,0,0.533,0c0.193,0,0.427,0,0.702,0c0.69,0,1.265,0.062,1.727,0.184
		c0.461,0.123,0.832,0.301,1.111,0.534s0.477,0.52,0.594,0.858c0.116,0.339,0.174,0.726,0.174,1.158
		c0,0.528-0.094,0.999-0.283,1.411c-0.188,0.412-0.449,0.761-0.784,1.046s-0.732,0.502-1.193,0.652
		c-0.461,0.149-0.965,0.225-1.511,0.225c-0.119,0-0.24,0-0.365,0c-0.125,0-0.241,0-0.35,0c-0.107,0-0.201-0.003-0.279-0.01
		c-0.078-0.006-0.132-0.014-0.162-0.022v2.787l1.714,0.146v0.692h-4.272V18.386z M101.853,14.693
		c0.119,0.029,0.267,0.044,0.444,0.044s0.417,0,0.717,0c0.279,0,0.55-0.041,0.812-0.123s0.494-0.224,0.695-0.423
		c0.201-0.2,0.362-0.468,0.482-0.802c0.121-0.335,0.181-0.757,0.181-1.267c0-0.37-0.045-0.685-0.136-0.943
		c-0.091-0.259-0.228-0.471-0.41-0.635s-0.411-0.284-0.686-0.359c-0.275-0.076-0.597-0.114-0.965-0.114
		c-0.148,0-0.276,0.005-0.384,0.013c-0.107,0.009-0.205,0.018-0.292,0.025c-0.086,0.009-0.166,0.019-0.238,0.028
		c-0.072,0.011-0.146,0.017-0.222,0.017V14.693z"/>
	<path fill="#FFFFFF" d="M107.649,17.019c0-0.445,0.12-0.822,0.359-1.132c0.239-0.31,0.556-0.562,0.952-0.756
		c0.396-0.195,0.848-0.34,1.358-0.433c0.51-0.094,1.038-0.14,1.583-0.14v-0.282c0-0.246-0.021-0.456-0.063-0.63
		s-0.118-0.315-0.225-0.424c-0.108-0.108-0.253-0.188-0.435-0.238s-0.413-0.076-0.692-0.076c-0.237,0-0.467,0.018-0.688,0.053
		c-0.223,0.035-0.431,0.079-0.625,0.133c-0.195,0.053-0.373,0.11-0.533,0.171c-0.161,0.062-0.298,0.117-0.413,0.169h-0.006
		l-0.317-0.583c0.072-0.067,0.208-0.157,0.41-0.27c0.201-0.112,0.438-0.222,0.711-0.33c0.272-0.107,0.568-0.201,0.885-0.279
		s0.628-0.117,0.933-0.117c0.457,0,0.842,0.043,1.155,0.131c0.313,0.087,0.566,0.228,0.759,0.422
		c0.192,0.194,0.331,0.446,0.416,0.757c0.084,0.31,0.127,0.686,0.127,1.127v3.949h0.774v0.622c-0.081,0.021-0.177,0.044-0.289,0.069
		c-0.112,0.025-0.232,0.049-0.359,0.07c-0.127,0.021-0.255,0.04-0.384,0.057c-0.129,0.018-0.25,0.025-0.365,0.025
		c-0.123,0-0.227-0.006-0.311-0.019s-0.154-0.041-0.209-0.086c-0.055-0.044-0.095-0.11-0.121-0.196
		c-0.025-0.087-0.038-0.202-0.038-0.347v-0.305c-0.072,0.068-0.175,0.156-0.308,0.264c-0.134,0.108-0.292,0.213-0.477,0.314
		c-0.184,0.102-0.391,0.189-0.622,0.264c-0.23,0.073-0.479,0.11-0.746,0.11c-0.292,0-0.571-0.04-0.838-0.12
		c-0.267-0.081-0.5-0.205-0.702-0.372c-0.201-0.168-0.36-0.382-0.479-0.643S107.649,17.379,107.649,17.019z M109.229,16.837
		c0,0.233,0.031,0.431,0.092,0.594c0.062,0.163,0.146,0.296,0.254,0.4c0.108,0.104,0.237,0.179,0.388,0.225
		c0.15,0.047,0.312,0.07,0.485,0.07c0.097,0,0.208-0.015,0.333-0.045c0.125-0.029,0.253-0.07,0.384-0.123
		c0.131-0.054,0.26-0.114,0.387-0.185c0.127-0.069,0.243-0.145,0.349-0.226V15.27c-0.491,0-0.906,0.043-1.244,0.13
		s-0.614,0.201-0.825,0.343s-0.365,0.308-0.46,0.498C109.277,16.431,109.229,16.63,109.229,16.837z"/>
	<path fill="#FFFFFF" d="M115.761,21.369v-8.204l-0.908-0.237v-0.794l1.873-0.254h0.032l0.286,0.247v0.759
		c0.106-0.123,0.232-0.245,0.377-0.368c0.146-0.122,0.312-0.232,0.495-0.331c0.185-0.099,0.388-0.179,0.609-0.24
		c0.223-0.062,0.462-0.092,0.721-0.092c0.368,0,0.724,0.064,1.066,0.194c0.343,0.129,0.645,0.331,0.904,0.604
		c0.261,0.273,0.469,0.624,0.625,1.054c0.157,0.429,0.235,0.942,0.235,1.542c0,0.525-0.086,1.021-0.257,1.487
		c-0.172,0.465-0.417,0.872-0.736,1.22c-0.32,0.348-0.708,0.623-1.165,0.825c-0.457,0.203-0.973,0.304-1.549,0.304
		c-0.102,0-0.208-0.004-0.317-0.013c-0.11-0.008-0.218-0.02-0.324-0.034c-0.106-0.016-0.208-0.032-0.305-0.051
		c-0.097-0.02-0.184-0.039-0.26-0.061l0.038,1.132v1.317l1.301,0.145v0.707h-3.688V21.52L115.761,21.369z M117.202,17.985
		c0.03,0.048,0.082,0.094,0.155,0.138c0.074,0.043,0.164,0.083,0.27,0.118c0.106,0.036,0.227,0.064,0.362,0.087
		c0.135,0.021,0.277,0.032,0.425,0.032c0.292,0,0.564-0.054,0.816-0.161c0.251-0.108,0.473-0.278,0.663-0.51
		s0.341-0.531,0.451-0.898s0.169-0.811,0.178-1.33c0.004-0.463-0.042-0.861-0.136-1.194c-0.096-0.334-0.228-0.607-0.397-0.821
		s-0.368-0.37-0.597-0.47c-0.229-0.101-0.474-0.15-0.736-0.15c-0.165,0-0.321,0.02-0.466,0.058
		c-0.146,0.037-0.282,0.086-0.406,0.146c-0.125,0.059-0.237,0.125-0.337,0.199c-0.099,0.073-0.181,0.145-0.244,0.212V17.985z"/>
	<path fill="#FFFFFF" d="M123.15,15.479c0-0.542,0.084-1.036,0.254-1.481s0.405-0.826,0.708-1.145
		c0.303-0.317,0.663-0.563,1.079-0.737c0.417-0.174,0.873-0.261,1.368-0.261c0.812,0,1.441,0.201,1.885,0.604
		c0.444,0.401,0.681,0.989,0.711,1.763c0.004,0.248,0.001,0.465-0.009,0.65c-0.011,0.186-0.033,0.348-0.067,0.487h-4.399
		c0.013,0.482,0.079,0.896,0.2,1.244c0.12,0.347,0.277,0.632,0.47,0.854c0.192,0.223,0.417,0.386,0.673,0.492
		c0.256,0.105,0.528,0.158,0.815,0.158c0.182,0,0.366-0.017,0.552-0.051c0.186-0.033,0.365-0.079,0.537-0.136
		c0.171-0.058,0.33-0.121,0.476-0.19c0.146-0.07,0.268-0.144,0.365-0.22l0.267,0.609c-0.119,0.123-0.273,0.242-0.463,0.359
		c-0.19,0.116-0.401,0.219-0.631,0.308c-0.231,0.089-0.478,0.16-0.74,0.216c-0.262,0.055-0.527,0.082-0.793,0.082
		c-0.546,0-1.023-0.088-1.432-0.264c-0.408-0.176-0.748-0.424-1.019-0.744c-0.271-0.319-0.473-0.699-0.606-1.141
		C123.217,16.494,123.15,16.009,123.15,15.479z M127.631,14.622c0.008-0.073,0.015-0.152,0.019-0.237s0.006-0.162,0.006-0.231
		c0-0.211-0.025-0.408-0.076-0.594s-0.13-0.348-0.238-0.487c-0.108-0.141-0.249-0.25-0.422-0.33s-0.387-0.12-0.641-0.12
		c-0.216,0-0.417,0.032-0.603,0.096s-0.35,0.173-0.492,0.327c-0.142,0.154-0.256,0.359-0.343,0.615
		c-0.087,0.256-0.141,0.576-0.162,0.962H127.631z"/>
	<path fill="#FFFFFF" d="M130.259,18.393l0.997-0.1V13.15l-0.901-0.254v-0.762l1.815-0.254h0.032l0.305,0.247v0.417l-0.013,0.86
		h0.013c0.021-0.043,0.064-0.112,0.13-0.206c0.065-0.095,0.15-0.199,0.254-0.312c0.104-0.114,0.225-0.232,0.365-0.354
		c0.14-0.123,0.295-0.234,0.466-0.335c0.172-0.102,0.357-0.184,0.556-0.247s0.413-0.095,0.641-0.095c0.097,0,0.18,0.006,0.248,0.02
		c0.068,0.013,0.125,0.03,0.171,0.052v1.605c-0.072-0.054-0.173-0.103-0.305-0.146c-0.131-0.044-0.279-0.065-0.444-0.065
		c-0.237,0-0.452,0.017-0.644,0.051c-0.193,0.033-0.366,0.077-0.521,0.133c-0.155,0.056-0.291,0.118-0.41,0.188
		c-0.119,0.068-0.222,0.137-0.311,0.203v4.447h1.669v0.736h-4.113V18.393z"/>
	<path fill="#FFFFFF" d="M136.118,18.386l1.028-0.107V9.423l-1.041-0.127V8.693l2.165-0.273h0.013l0.311,0.216v9.643l1.079,0.107
		v0.692h-3.555V18.386z"/>
	<path fill="#FFFFFF" d="M140.561,15.479c0-0.542,0.084-1.036,0.254-1.481s0.405-0.826,0.708-1.145
		c0.303-0.317,0.663-0.563,1.079-0.737c0.417-0.174,0.873-0.261,1.368-0.261c0.812,0,1.441,0.201,1.885,0.604
		c0.444,0.401,0.681,0.989,0.711,1.763c0.004,0.248,0.001,0.465-0.009,0.65c-0.011,0.186-0.033,0.348-0.067,0.487h-4.399
		c0.013,0.482,0.079,0.896,0.2,1.244c0.12,0.347,0.277,0.632,0.47,0.854c0.192,0.223,0.417,0.386,0.673,0.492
		c0.256,0.105,0.528,0.158,0.815,0.158c0.182,0,0.366-0.017,0.552-0.051c0.186-0.033,0.365-0.079,0.537-0.136
		c0.171-0.058,0.33-0.121,0.476-0.19c0.146-0.07,0.268-0.144,0.365-0.22l0.267,0.609c-0.119,0.123-0.273,0.242-0.463,0.359
		c-0.19,0.116-0.401,0.219-0.631,0.308c-0.231,0.089-0.478,0.16-0.74,0.216c-0.262,0.055-0.527,0.082-0.793,0.082
		c-0.546,0-1.023-0.088-1.432-0.264c-0.408-0.176-0.748-0.424-1.019-0.744c-0.271-0.319-0.473-0.699-0.606-1.141
		C140.628,16.494,140.561,16.009,140.561,15.479z M145.043,14.622c0.008-0.073,0.015-0.152,0.019-0.237s0.006-0.162,0.006-0.231
		c0-0.211-0.025-0.408-0.076-0.594s-0.13-0.348-0.238-0.487c-0.108-0.141-0.249-0.25-0.422-0.33s-0.387-0.12-0.641-0.12
		c-0.216,0-0.417,0.032-0.603,0.096s-0.35,0.173-0.492,0.327c-0.142,0.154-0.256,0.359-0.343,0.615
		c-0.087,0.256-0.141,0.576-0.162,0.962H145.043z"/>
	<path fill="#FFFFFF" d="M147.836,16.947h0.895l0.254,0.918c0.038,0.061,0.104,0.121,0.196,0.182
		c0.094,0.061,0.203,0.115,0.33,0.163s0.268,0.087,0.423,0.114c0.154,0.028,0.312,0.043,0.473,0.043
		c0.254,0,0.467-0.024,0.638-0.073c0.172-0.049,0.308-0.116,0.409-0.203s0.174-0.189,0.216-0.307
		c0.043-0.118,0.063-0.245,0.063-0.383c0-0.162-0.04-0.307-0.12-0.435c-0.081-0.128-0.201-0.249-0.362-0.364
		c-0.16-0.116-0.36-0.229-0.6-0.341s-0.52-0.228-0.841-0.35c-0.326-0.121-0.61-0.253-0.854-0.395
		c-0.244-0.142-0.446-0.302-0.606-0.479c-0.161-0.179-0.28-0.377-0.358-0.596c-0.079-0.219-0.118-0.468-0.118-0.747
		s0.067-0.532,0.2-0.757c0.134-0.225,0.319-0.418,0.556-0.58c0.236-0.162,0.518-0.286,0.841-0.373
		c0.324-0.088,0.676-0.131,1.057-0.131c0.275,0,0.527,0.017,0.756,0.051s0.432,0.074,0.609,0.118
		c0.178,0.045,0.332,0.09,0.463,0.135c0.132,0.045,0.239,0.078,0.324,0.1v1.543h-0.812l-0.273-0.848
		c-0.025-0.049-0.071-0.097-0.14-0.143c-0.067-0.047-0.151-0.088-0.25-0.124c-0.1-0.036-0.212-0.065-0.337-0.088
		s-0.255-0.033-0.391-0.033c-0.207,0-0.389,0.021-0.546,0.063c-0.156,0.043-0.287,0.102-0.394,0.176
		c-0.105,0.075-0.185,0.166-0.237,0.273c-0.054,0.107-0.08,0.224-0.08,0.349c0,0.203,0.048,0.372,0.144,0.507
		c0.095,0.136,0.221,0.256,0.377,0.358c0.157,0.104,0.336,0.195,0.537,0.276c0.2,0.081,0.409,0.166,0.625,0.255
		c0.283,0.117,0.56,0.241,0.828,0.37c0.269,0.13,0.506,0.279,0.711,0.449s0.37,0.367,0.495,0.592s0.188,0.495,0.188,0.811
		c0,0.304-0.063,0.58-0.19,0.831s-0.311,0.467-0.549,0.646c-0.239,0.181-0.531,0.319-0.876,0.416
		c-0.346,0.098-0.738,0.146-1.178,0.146c-0.241,0-0.487-0.019-0.736-0.057c-0.25-0.038-0.487-0.086-0.711-0.143
		c-0.225-0.058-0.427-0.117-0.609-0.178c-0.182-0.062-0.328-0.118-0.438-0.169V16.947z"/>
	<path fill="#FFFFFF" d="M154.456,16.947h0.895l0.254,0.918c0.038,0.061,0.104,0.121,0.197,0.182
		c0.093,0.061,0.203,0.115,0.33,0.163s0.268,0.087,0.422,0.114c0.154,0.028,0.312,0.043,0.473,0.043
		c0.254,0,0.467-0.024,0.638-0.073c0.172-0.049,0.309-0.116,0.41-0.203s0.173-0.189,0.216-0.307
		c0.042-0.118,0.063-0.245,0.063-0.383c0-0.162-0.04-0.307-0.121-0.435c-0.08-0.128-0.201-0.249-0.361-0.364
		c-0.161-0.116-0.361-0.229-0.601-0.341c-0.238-0.111-0.519-0.228-0.841-0.35c-0.325-0.121-0.61-0.253-0.854-0.395
		s-0.445-0.302-0.606-0.479c-0.16-0.179-0.28-0.377-0.358-0.596s-0.117-0.468-0.117-0.747s0.066-0.532,0.199-0.757
		c0.134-0.225,0.319-0.418,0.556-0.58c0.237-0.162,0.518-0.286,0.841-0.373c0.324-0.088,0.677-0.131,1.058-0.131
		c0.274,0,0.526,0.017,0.755,0.051s0.432,0.074,0.609,0.118c0.178,0.045,0.332,0.09,0.464,0.135c0.131,0.045,0.239,0.078,0.323,0.1
		v1.543h-0.812l-0.272-0.848c-0.025-0.049-0.072-0.097-0.14-0.143c-0.068-0.047-0.151-0.088-0.251-0.124s-0.212-0.065-0.337-0.088
		c-0.124-0.022-0.255-0.033-0.39-0.033c-0.208,0-0.39,0.021-0.546,0.063c-0.157,0.043-0.288,0.102-0.394,0.176
		c-0.106,0.075-0.186,0.166-0.238,0.273s-0.079,0.224-0.079,0.349c0,0.203,0.047,0.372,0.143,0.507
		c0.095,0.136,0.221,0.256,0.378,0.358c0.156,0.104,0.335,0.195,0.536,0.276s0.409,0.166,0.625,0.255
		c0.284,0.117,0.56,0.241,0.828,0.37c0.27,0.13,0.506,0.279,0.711,0.449c0.206,0.17,0.371,0.367,0.495,0.592
		c0.125,0.225,0.188,0.495,0.188,0.811c0,0.304-0.063,0.58-0.19,0.831s-0.31,0.467-0.549,0.646
		c-0.239,0.181-0.531,0.319-0.876,0.416c-0.345,0.098-0.737,0.146-1.178,0.146c-0.241,0-0.486-0.019-0.736-0.057
		c-0.249-0.038-0.486-0.086-0.711-0.143c-0.224-0.058-0.427-0.117-0.609-0.178c-0.182-0.062-0.328-0.118-0.438-0.169V16.947z"/>
	<path fill="#FFFFFF" d="M52.767,33.985l1.066-0.146v-7.885l-0.997-0.162v-0.776h1.568c0.199,0,0.375,0,0.53,0
		c0.154,0,0.313,0,0.476,0c0.163,0,0.341,0,0.533,0c0.193,0,0.427,0,0.702,0c0.69,0,1.265,0.062,1.727,0.184
		c0.461,0.123,0.832,0.301,1.111,0.534s0.477,0.52,0.594,0.858c0.116,0.339,0.174,0.726,0.174,1.158
		c0,0.528-0.094,0.999-0.283,1.411c-0.188,0.412-0.449,0.761-0.784,1.046s-0.732,0.502-1.193,0.652
		c-0.461,0.149-0.965,0.225-1.511,0.225c-0.119,0-0.24,0-0.365,0c-0.125,0-0.241,0-0.35,0c-0.107,0-0.201-0.003-0.279-0.01
		c-0.078-0.006-0.132-0.014-0.162-0.022v2.787l1.714,0.146v0.692h-4.272V33.985z M55.319,30.292
		c0.119,0.029,0.267,0.044,0.444,0.044s0.417,0,0.717,0c0.279,0,0.55-0.041,0.812-0.123s0.494-0.224,0.695-0.423
		c0.201-0.2,0.362-0.468,0.482-0.802c0.121-0.335,0.181-0.757,0.181-1.267c0-0.37-0.045-0.685-0.136-0.943
		c-0.091-0.259-0.228-0.471-0.41-0.635s-0.411-0.284-0.686-0.359c-0.275-0.076-0.597-0.114-0.965-0.114
		c-0.148,0-0.276,0.005-0.384,0.013c-0.107,0.009-0.205,0.018-0.292,0.025c-0.086,0.009-0.166,0.019-0.238,0.028
		c-0.072,0.011-0.146,0.017-0.222,0.017V30.292z"/>
	<path fill="#FFFFFF" d="M61.165,33.992l0.997-0.1v-5.144l-0.901-0.254v-0.762l1.815-0.254h0.032l0.305,0.247v0.417l-0.013,0.86
		h0.013c0.021-0.043,0.064-0.112,0.13-0.206c0.065-0.095,0.15-0.199,0.254-0.312c0.104-0.114,0.225-0.232,0.365-0.354
		c0.14-0.123,0.295-0.234,0.466-0.335c0.172-0.102,0.357-0.184,0.556-0.247s0.413-0.095,0.641-0.095c0.097,0,0.18,0.006,0.248,0.02
		c0.068,0.013,0.125,0.03,0.171,0.052v1.605c-0.072-0.054-0.173-0.103-0.305-0.146c-0.131-0.044-0.279-0.065-0.444-0.065
		c-0.237,0-0.452,0.017-0.644,0.051c-0.193,0.033-0.366,0.077-0.521,0.133c-0.155,0.056-0.291,0.118-0.41,0.188
		c-0.119,0.068-0.222,0.137-0.311,0.203v4.447h1.669v0.736h-4.113V33.992z"/>
	<path fill="#FFFFFF" d="M67.062,31.066c0-0.578,0.098-1.092,0.295-1.542c0.196-0.449,0.456-0.826,0.777-1.132
		s0.688-0.538,1.102-0.698c0.412-0.159,0.834-0.239,1.266-0.239c0.571,0,1.064,0.093,1.479,0.279
		c0.415,0.186,0.755,0.441,1.022,0.765c0.267,0.324,0.464,0.706,0.593,1.147c0.129,0.441,0.194,0.917,0.194,1.427
		c0,0.586-0.097,1.104-0.292,1.554s-0.453,0.826-0.774,1.132s-0.69,0.536-1.104,0.692s-0.84,0.233-1.276,0.233
		c-0.571,0-1.063-0.093-1.476-0.279c-0.413-0.186-0.752-0.44-1.019-0.765c-0.267-0.323-0.464-0.706-0.593-1.147
		C67.126,32.051,67.062,31.576,67.062,31.066z M70.426,33.897c1.172,0,1.758-0.905,1.758-2.717c0-0.42-0.032-0.809-0.095-1.166
		c-0.063-0.358-0.165-0.669-0.305-0.933c-0.14-0.265-0.321-0.47-0.542-0.618c-0.223-0.147-0.494-0.222-0.816-0.222
		c-0.58,0-1.019,0.226-1.317,0.678c-0.299,0.451-0.448,1.131-0.448,2.039c0,0.42,0.033,0.81,0.098,1.169
		c0.066,0.36,0.168,0.671,0.308,0.933c0.14,0.263,0.322,0.468,0.546,0.615C69.838,33.823,70.109,33.897,70.426,33.897z"/>
	<path fill="#FFFFFF" d="M74.78,31.199c0-0.51,0.076-0.991,0.229-1.444s0.382-0.852,0.689-1.193
		c0.307-0.342,0.688-0.612,1.146-0.811s0.988-0.297,1.593-0.297c0.22,0,0.43,0.015,0.628,0.044c0.199,0.03,0.383,0.064,0.552,0.105
		c0.169,0.04,0.319,0.083,0.451,0.13c0.131,0.046,0.239,0.084,0.324,0.114l-0.063,1.864h-0.882l-0.292-1.12
		c-0.059-0.136-0.18-0.234-0.362-0.296c-0.182-0.062-0.389-0.093-0.622-0.093c-0.275,0-0.525,0.053-0.749,0.158
		c-0.224,0.106-0.418,0.265-0.581,0.477c-0.163,0.211-0.289,0.477-0.378,0.796s-0.133,0.691-0.133,1.114
		c-0.004,0.519,0.049,0.965,0.159,1.339c0.11,0.373,0.259,0.68,0.447,0.919c0.188,0.239,0.409,0.416,0.66,0.529
		c0.252,0.114,0.522,0.171,0.81,0.171c0.199,0,0.388-0.016,0.568-0.047c0.18-0.032,0.346-0.073,0.498-0.122
		c0.152-0.05,0.292-0.105,0.419-0.167s0.237-0.124,0.33-0.188l0.273,0.549c-0.11,0.114-0.25,0.228-0.419,0.34
		s-0.361,0.214-0.575,0.305c-0.213,0.092-0.441,0.165-0.682,0.223c-0.241,0.057-0.487,0.085-0.736,0.085
		c-0.55,0-1.03-0.089-1.441-0.267c-0.411-0.179-0.753-0.423-1.028-0.734c-0.275-0.312-0.481-0.681-0.619-1.105
		C74.856,32.152,74.785,31.693,74.78,31.199z"/>
	<path fill="#FFFFFF" d="M81.477,31.078c0-0.542,0.084-1.036,0.254-1.481s0.405-0.826,0.708-1.145
		c0.303-0.317,0.663-0.563,1.079-0.737c0.417-0.174,0.873-0.261,1.368-0.261c0.812,0,1.441,0.201,1.885,0.604
		c0.444,0.401,0.681,0.989,0.711,1.763c0.004,0.248,0.001,0.465-0.009,0.65c-0.011,0.186-0.033,0.348-0.067,0.487h-4.399
		c0.013,0.482,0.079,0.896,0.2,1.244c0.12,0.347,0.277,0.632,0.47,0.854c0.192,0.223,0.417,0.386,0.673,0.492
		c0.256,0.105,0.528,0.158,0.815,0.158c0.182,0,0.366-0.017,0.552-0.051c0.186-0.033,0.365-0.079,0.537-0.136
		c0.171-0.058,0.33-0.121,0.476-0.19c0.146-0.07,0.268-0.144,0.365-0.22l0.267,0.609c-0.119,0.123-0.273,0.242-0.463,0.359
		c-0.19,0.116-0.401,0.219-0.631,0.308c-0.231,0.089-0.478,0.16-0.74,0.216S85,34.684,84.734,34.684
		c-0.546,0-1.023-0.087-1.432-0.264c-0.408-0.176-0.748-0.424-1.019-0.744c-0.271-0.319-0.473-0.699-0.606-1.141
		C81.544,32.094,81.477,31.609,81.477,31.078z M85.959,30.222c0.008-0.073,0.015-0.152,0.019-0.237s0.006-0.162,0.006-0.231
		c0-0.211-0.025-0.408-0.076-0.594s-0.13-0.348-0.238-0.487c-0.108-0.141-0.249-0.25-0.422-0.33s-0.387-0.12-0.641-0.12
		c-0.216,0-0.417,0.032-0.603,0.096s-0.35,0.173-0.492,0.327c-0.142,0.154-0.256,0.359-0.343,0.615
		c-0.087,0.256-0.141,0.576-0.162,0.962H85.959z"/>
	<path fill="#FFFFFF" d="M88.752,32.547h0.895l0.254,0.918c0.038,0.061,0.104,0.121,0.197,0.182s0.203,0.115,0.33,0.163
		s0.268,0.087,0.422,0.114c0.154,0.028,0.312,0.043,0.473,0.043c0.254,0,0.467-0.024,0.638-0.073
		c0.172-0.049,0.308-0.116,0.41-0.203s0.173-0.189,0.216-0.307c0.042-0.118,0.063-0.245,0.063-0.383c0-0.162-0.04-0.307-0.121-0.435
		s-0.201-0.249-0.362-0.364c-0.161-0.116-0.361-0.229-0.6-0.341c-0.239-0.111-0.519-0.228-0.841-0.35
		c-0.326-0.121-0.61-0.253-0.854-0.395c-0.244-0.142-0.446-0.302-0.606-0.479c-0.161-0.179-0.28-0.377-0.358-0.596
		c-0.079-0.219-0.118-0.468-0.118-0.747s0.067-0.532,0.2-0.757c0.134-0.225,0.319-0.418,0.556-0.58s0.518-0.286,0.841-0.373
		c0.324-0.088,0.676-0.131,1.057-0.131c0.275,0,0.527,0.017,0.755,0.051s0.432,0.074,0.609,0.118
		c0.178,0.045,0.332,0.09,0.463,0.135s0.239,0.078,0.324,0.1v1.543h-0.812l-0.273-0.848c-0.025-0.049-0.072-0.097-0.14-0.143
		c-0.068-0.047-0.151-0.088-0.25-0.124c-0.1-0.036-0.212-0.065-0.337-0.088c-0.125-0.022-0.255-0.033-0.39-0.033
		c-0.208,0-0.389,0.021-0.546,0.063c-0.157,0.043-0.288,0.102-0.394,0.176c-0.106,0.075-0.185,0.166-0.238,0.273
		c-0.053,0.107-0.08,0.224-0.08,0.349c0,0.203,0.047,0.372,0.143,0.507c0.095,0.136,0.221,0.256,0.377,0.358
		c0.157,0.104,0.335,0.195,0.537,0.276c0.201,0.081,0.409,0.166,0.625,0.255c0.284,0.117,0.56,0.241,0.828,0.37
		c0.269,0.13,0.506,0.279,0.711,0.449c0.206,0.17,0.371,0.367,0.495,0.592c0.125,0.225,0.188,0.495,0.188,0.811
		c0,0.304-0.063,0.58-0.19,0.831s-0.31,0.467-0.549,0.646c-0.239,0.181-0.531,0.319-0.876,0.416
		c-0.345,0.098-0.738,0.146-1.178,0.146c-0.241,0-0.487-0.019-0.736-0.057s-0.487-0.085-0.711-0.143s-0.427-0.117-0.609-0.178
		c-0.182-0.062-0.328-0.118-0.438-0.169V32.547z"/>
	<path fill="#FFFFFF" d="M95.372,32.547h0.895l0.254,0.918c0.038,0.061,0.104,0.121,0.197,0.182s0.203,0.115,0.33,0.163
		s0.268,0.087,0.422,0.114c0.154,0.028,0.312,0.043,0.473,0.043c0.254,0,0.467-0.024,0.638-0.073
		c0.172-0.049,0.308-0.116,0.41-0.203s0.173-0.189,0.216-0.307c0.042-0.118,0.063-0.245,0.063-0.383c0-0.162-0.04-0.307-0.121-0.435
		s-0.201-0.249-0.362-0.364c-0.161-0.116-0.361-0.229-0.6-0.341c-0.239-0.111-0.519-0.228-0.841-0.35
		c-0.326-0.121-0.61-0.253-0.854-0.395c-0.244-0.142-0.446-0.302-0.606-0.479c-0.161-0.179-0.28-0.377-0.358-0.596
		c-0.079-0.219-0.118-0.468-0.118-0.747s0.067-0.532,0.2-0.757c0.134-0.225,0.319-0.418,0.556-0.58s0.518-0.286,0.841-0.373
		c0.324-0.088,0.676-0.131,1.057-0.131c0.275,0,0.527,0.017,0.755,0.051s0.432,0.074,0.609,0.118
		c0.178,0.045,0.332,0.09,0.463,0.135s0.239,0.078,0.324,0.1v1.543h-0.812l-0.273-0.848c-0.025-0.049-0.072-0.097-0.14-0.143
		c-0.068-0.047-0.151-0.088-0.25-0.124c-0.1-0.036-0.212-0.065-0.337-0.088c-0.125-0.022-0.255-0.033-0.39-0.033
		c-0.208,0-0.389,0.021-0.546,0.063c-0.157,0.043-0.288,0.102-0.394,0.176c-0.106,0.075-0.185,0.166-0.238,0.273
		c-0.053,0.107-0.08,0.224-0.08,0.349c0,0.203,0.047,0.372,0.143,0.507c0.095,0.136,0.221,0.256,0.377,0.358
		c0.157,0.104,0.335,0.195,0.537,0.276c0.201,0.081,0.409,0.166,0.625,0.255c0.284,0.117,0.56,0.241,0.828,0.37
		c0.269,0.13,0.506,0.279,0.711,0.449c0.206,0.17,0.371,0.367,0.495,0.592c0.125,0.225,0.188,0.495,0.188,0.811
		c0,0.304-0.063,0.58-0.19,0.831s-0.31,0.467-0.549,0.646c-0.239,0.181-0.531,0.319-0.876,0.416
		c-0.345,0.098-0.738,0.146-1.178,0.146c-0.241,0-0.487-0.019-0.736-0.057s-0.487-0.085-0.711-0.143s-0.427-0.117-0.609-0.178
		c-0.182-0.062-0.328-0.118-0.438-0.169V32.547z"/>
	<path fill="#FFFFFF" d="M101.733,33.985l1.028-0.107v-5.319l-0.92-0.261v-0.749l2.019-0.26h0.032l0.324,0.247v6.342l1.016,0.107
		v0.692h-3.498V33.985z M102.948,25.941c-0.104-0.045-0.192-0.106-0.264-0.185s-0.128-0.17-0.168-0.276
		c-0.041-0.105-0.061-0.22-0.061-0.343c0-0.135,0.02-0.265,0.061-0.387c0.04-0.123,0.1-0.231,0.181-0.327
		c0.081-0.095,0.18-0.171,0.298-0.229c0.119-0.057,0.256-0.086,0.413-0.086h0.006c0.14,0,0.263,0.024,0.372,0.073
		c0.107,0.049,0.199,0.114,0.272,0.197c0.074,0.082,0.13,0.176,0.168,0.282c0.038,0.105,0.057,0.216,0.057,0.33
		c0,0.14-0.02,0.271-0.061,0.396c-0.04,0.125-0.102,0.232-0.184,0.324c-0.083,0.091-0.187,0.162-0.312,0.216
		c-0.125,0.053-0.27,0.079-0.435,0.079h-0.006C103.165,26.007,103.052,25.985,102.948,25.941z"/>
	<path fill="#FFFFFF" d="M106.233,34.007l0.832-0.104V28.75l-0.908-0.246v-0.803l1.879-0.254h0.032l0.298,0.248v0.539l-0.006,0.306
		c0.14-0.131,0.311-0.262,0.514-0.392c0.203-0.129,0.422-0.246,0.657-0.349c0.234-0.104,0.478-0.187,0.729-0.25
		c0.252-0.064,0.497-0.096,0.733-0.096c0.415,0,0.756,0.056,1.025,0.168c0.269,0.111,0.481,0.287,0.638,0.525
		s0.266,0.543,0.327,0.914c0.061,0.371,0.092,0.813,0.092,1.327v3.514l0.914,0.104v0.671h-3.187v-0.671l0.812-0.104v-3.507
		c0-0.334-0.016-0.625-0.048-0.87c-0.031-0.246-0.093-0.449-0.184-0.61c-0.091-0.161-0.22-0.281-0.388-0.359
		c-0.167-0.079-0.386-0.118-0.657-0.118c-0.161,0-0.325,0.02-0.492,0.06c-0.167,0.039-0.33,0.091-0.489,0.156
		c-0.158,0.065-0.31,0.14-0.454,0.223s-0.273,0.168-0.387,0.255v4.771l0.876,0.104v0.671h-3.161V34.007z"/>
	<path fill="#FFFFFF" d="M114.898,36.17c0-0.208,0.034-0.404,0.102-0.591s0.157-0.356,0.267-0.511s0.236-0.29,0.378-0.406
		c0.142-0.116,0.287-0.213,0.435-0.289c-0.199-0.11-0.351-0.252-0.457-0.426c-0.106-0.173-0.159-0.387-0.159-0.641
		c0-0.165,0.024-0.323,0.073-0.473c0.049-0.15,0.118-0.29,0.207-0.419c0.089-0.13,0.194-0.248,0.314-0.355
		c0.121-0.108,0.253-0.202,0.397-0.283c-0.423-0.185-0.748-0.445-0.974-0.781c-0.227-0.336-0.34-0.736-0.34-1.199
		c0-0.37,0.086-0.7,0.257-0.989c0.172-0.29,0.398-0.535,0.68-0.734c0.281-0.199,0.603-0.352,0.965-0.458
		c0.361-0.107,0.735-0.16,1.12-0.16h0.006c0.453,0,0.861,0.051,1.225,0.152s0.673,0.256,0.927,0.463
		c0.042-0.05,0.107-0.109,0.193-0.18c0.087-0.071,0.192-0.139,0.314-0.202c0.123-0.064,0.265-0.119,0.425-0.165
		s0.338-0.068,0.533-0.068h0.343v1.219h-1.333c0.072,0.139,0.127,0.287,0.165,0.443c0.038,0.157,0.057,0.329,0.057,0.516
		c0,0.365-0.076,0.698-0.229,0.998s-0.364,0.558-0.635,0.771c-0.271,0.215-0.589,0.381-0.955,0.498
		c-0.366,0.117-0.763,0.176-1.19,0.176h-0.006c-0.347,0-0.671-0.036-0.971-0.108c-0.114,0.102-0.206,0.222-0.276,0.359
		c-0.069,0.137-0.104,0.28-0.104,0.428c0,0.161,0.028,0.292,0.086,0.394c0.057,0.102,0.144,0.182,0.26,0.238
		c0.117,0.058,0.265,0.097,0.444,0.117c0.18,0.021,0.393,0.032,0.638,0.032h1.384c0.851,0,1.477,0.16,1.879,0.482
		c0.402,0.321,0.603,0.796,0.603,1.422c0,0.25-0.046,0.491-0.14,0.724s-0.224,0.448-0.394,0.647s-0.371,0.381-0.606,0.546
		c-0.234,0.165-0.493,0.307-0.774,0.425c-0.281,0.119-0.582,0.21-0.901,0.273c-0.319,0.063-0.648,0.096-0.987,0.096h-0.006
		c-0.592,0-1.094-0.048-1.504-0.144c-0.411-0.095-0.745-0.229-1.003-0.399c-0.258-0.172-0.444-0.379-0.559-0.622
		S114.898,36.47,114.898,36.17z M116.32,35.795c0,0.245,0.034,0.463,0.102,0.654c0.068,0.189,0.178,0.352,0.33,0.485
		c0.152,0.133,0.351,0.234,0.597,0.305c0.246,0.069,0.546,0.104,0.901,0.104h0.013c0.275,0,0.548-0.033,0.819-0.099
		s0.513-0.163,0.727-0.292c0.213-0.129,0.386-0.289,0.517-0.479c0.131-0.191,0.197-0.413,0.197-0.667c0-0.19-0.02-0.356-0.061-0.498
		c-0.04-0.142-0.116-0.26-0.229-0.353c-0.112-0.093-0.269-0.163-0.47-0.209c-0.201-0.047-0.46-0.07-0.777-0.07h-1.276
		c-0.186,0-0.361-0.007-0.524-0.022c-0.163-0.015-0.316-0.035-0.46-0.061c-0.11,0.136-0.205,0.301-0.286,0.496
		C116.36,35.285,116.32,35.52,116.32,35.795z M118.148,31.319c0.25,0,0.461-0.035,0.635-0.106s0.315-0.175,0.425-0.312
		c0.11-0.136,0.19-0.302,0.241-0.497c0.051-0.196,0.076-0.418,0.076-0.667c0-0.537-0.119-0.929-0.355-1.173
		c-0.237-0.245-0.599-0.368-1.085-0.368h-0.006c-0.216,0-0.412,0.026-0.587,0.077c-0.175,0.052-0.327,0.135-0.454,0.249
		s-0.225,0.267-0.295,0.456c-0.069,0.189-0.104,0.423-0.104,0.699c0,0.229,0.026,0.443,0.079,0.644
		c0.053,0.199,0.138,0.373,0.254,0.521c0.117,0.148,0.271,0.265,0.464,0.35c0.192,0.085,0.428,0.127,0.708,0.127H118.148z"/>
	<path fill="#FFFFFF" d="M127.028,31.808h0.882l0.254,1.578c0.068,0.07,0.16,0.138,0.276,0.203c0.117,0.066,0.251,0.124,0.403,0.173
		c0.152,0.05,0.318,0.089,0.498,0.117c0.18,0.029,0.37,0.043,0.568,0.043c0.643,0,1.122-0.139,1.435-0.417s0.47-0.656,0.47-1.134
		c0-0.247-0.053-0.466-0.159-0.655s-0.256-0.361-0.451-0.517c-0.195-0.154-0.429-0.299-0.701-0.436
		c-0.273-0.136-0.575-0.275-0.905-0.42c-0.262-0.115-0.542-0.254-0.841-0.414c-0.298-0.161-0.575-0.355-0.831-0.584
		c-0.256-0.229-0.469-0.499-0.638-0.81c-0.169-0.312-0.254-0.675-0.254-1.091c0-0.351,0.074-0.675,0.222-0.974
		s0.358-0.557,0.632-0.772c0.272-0.216,0.604-0.385,0.993-0.507c0.389-0.121,0.827-0.183,1.314-0.183
		c0.309,0,0.598,0.021,0.867,0.063c0.269,0.043,0.512,0.091,0.729,0.146c0.218,0.055,0.409,0.107,0.571,0.158
		c0.163,0.051,0.293,0.083,0.391,0.096l-0.083,2.122h-0.851l-0.292-1.498c-0.038-0.041-0.1-0.082-0.184-0.123
		s-0.188-0.078-0.308-0.111c-0.121-0.032-0.254-0.06-0.4-0.08c-0.146-0.021-0.297-0.03-0.454-0.03c-0.584,0-1.016,0.114-1.295,0.343
		s-0.419,0.563-0.419,1.004c0,0.248,0.052,0.463,0.156,0.646c0.104,0.184,0.252,0.353,0.447,0.507s0.43,0.303,0.705,0.445
		c0.275,0.142,0.582,0.293,0.92,0.454c0.305,0.148,0.615,0.306,0.93,0.473c0.315,0.167,0.602,0.36,0.86,0.581
		s0.469,0.473,0.632,0.757c0.163,0.284,0.244,0.616,0.244,0.995c0,0.325-0.071,0.65-0.213,0.974
		c-0.142,0.323-0.355,0.615-0.641,0.875c-0.286,0.259-0.646,0.471-1.079,0.634c-0.434,0.162-0.945,0.243-1.533,0.243
		c-0.376,0-0.725-0.028-1.044-0.085c-0.32-0.058-0.605-0.122-0.857-0.194c-0.251-0.071-0.468-0.14-0.65-0.203
		s-0.324-0.099-0.425-0.107L127.028,31.808z"/>
	<path fill="#FFFFFF" d="M134.941,36.592c0.057,0.012,0.122,0.023,0.193,0.033s0.146,0.018,0.222,0.024
		c0.076,0.006,0.148,0.009,0.216,0.009c0.165,0,0.331-0.022,0.499-0.067c0.167-0.045,0.333-0.138,0.498-0.278
		s0.331-0.341,0.498-0.602c0.167-0.261,0.333-0.605,0.499-1.033h-0.717l-2.374-6.38l-0.603-0.165V27.46h3.231v0.673l-0.997,0.165
		l1.225,3.834l0.565,1.841l0.508-1.847l1.149-3.834l-0.851-0.159V27.46h2.666v0.673l-0.647,0.157
		c-0.643,1.973-1.15,3.501-1.521,4.586c-0.37,1.084-0.604,1.738-0.701,1.961c-0.199,0.495-0.394,0.929-0.584,1.303
		c-0.19,0.373-0.398,0.686-0.622,0.938s-0.476,0.44-0.755,0.566s-0.605,0.188-0.978,0.188c-0.063,0-0.132,0-0.207,0
		c-0.074,0-0.146-0.005-0.216-0.016c-0.069-0.011-0.133-0.021-0.19-0.031c-0.057-0.011-0.1-0.022-0.13-0.035v-1.2
		C134.842,36.566,134.883,36.579,134.941,36.592z"/>
	<path fill="#FFFFFF" d="M142.135,32.547h0.895l0.254,0.918c0.038,0.061,0.104,0.121,0.197,0.182s0.203,0.115,0.33,0.163
		s0.268,0.087,0.422,0.114c0.154,0.028,0.312,0.043,0.473,0.043c0.254,0,0.467-0.024,0.638-0.073
		c0.172-0.049,0.308-0.116,0.41-0.203s0.173-0.189,0.216-0.307c0.042-0.118,0.063-0.245,0.063-0.383c0-0.162-0.04-0.307-0.121-0.435
		s-0.201-0.249-0.362-0.364c-0.161-0.116-0.361-0.229-0.6-0.341c-0.239-0.111-0.519-0.228-0.841-0.35
		c-0.326-0.121-0.61-0.253-0.854-0.395c-0.244-0.142-0.446-0.302-0.606-0.479c-0.161-0.179-0.28-0.377-0.358-0.596
		c-0.079-0.219-0.118-0.468-0.118-0.747s0.067-0.532,0.2-0.757c0.134-0.225,0.319-0.418,0.556-0.58s0.518-0.286,0.841-0.373
		c0.324-0.088,0.676-0.131,1.057-0.131c0.275,0,0.527,0.017,0.755,0.051s0.432,0.074,0.609,0.118
		c0.178,0.045,0.332,0.09,0.463,0.135s0.239,0.078,0.324,0.1v1.543h-0.812l-0.273-0.848c-0.025-0.049-0.072-0.097-0.14-0.143
		c-0.068-0.047-0.151-0.088-0.25-0.124c-0.1-0.036-0.212-0.065-0.337-0.088c-0.125-0.022-0.255-0.033-0.39-0.033
		c-0.208,0-0.389,0.021-0.546,0.063c-0.157,0.043-0.288,0.102-0.394,0.176c-0.106,0.075-0.185,0.166-0.238,0.273
		c-0.053,0.107-0.08,0.224-0.08,0.349c0,0.203,0.047,0.372,0.143,0.507c0.095,0.136,0.221,0.256,0.377,0.358
		c0.157,0.104,0.335,0.195,0.537,0.276c0.201,0.081,0.409,0.166,0.625,0.255c0.284,0.117,0.56,0.241,0.828,0.37
		c0.269,0.13,0.506,0.279,0.711,0.449c0.206,0.17,0.371,0.367,0.495,0.592c0.125,0.225,0.188,0.495,0.188,0.811
		c0,0.304-0.063,0.58-0.19,0.831s-0.31,0.467-0.549,0.646c-0.239,0.181-0.531,0.319-0.876,0.416
		c-0.345,0.098-0.738,0.146-1.178,0.146c-0.241,0-0.487-0.019-0.736-0.057s-0.487-0.085-0.711-0.143s-0.427-0.117-0.609-0.178
		c-0.182-0.062-0.328-0.118-0.438-0.169V32.547z"/>
	<path fill="#FFFFFF" d="M149.333,28.368h-0.907v-0.604c0.055-0.014,0.117-0.032,0.187-0.057c0.07-0.025,0.14-0.05,0.21-0.074
		c0.069-0.025,0.133-0.05,0.19-0.074c0.057-0.025,0.099-0.046,0.124-0.064c0.071-0.054,0.135-0.122,0.19-0.205
		c0.055-0.083,0.105-0.19,0.152-0.32c0.033-0.081,0.074-0.19,0.12-0.327c0.047-0.137,0.092-0.278,0.137-0.425
		c0.044-0.146,0.086-0.286,0.124-0.421s0.065-0.241,0.082-0.317h0.825l0.013,1.98h2.133v0.908h-2.126v3.761
		c0,0.356,0.006,0.636,0.019,0.839s0.044,0.354,0.092,0.454c0.049,0.1,0.122,0.162,0.22,0.187c0.097,0.025,0.229,0.037,0.394,0.037
		h0.006c0.119,0,0.247-0.008,0.384-0.024c0.138-0.017,0.271-0.037,0.397-0.062s0.244-0.051,0.352-0.08
		c0.108-0.028,0.194-0.055,0.258-0.08h0.006l0.216,0.608c-0.097,0.078-0.23,0.156-0.399,0.236c-0.17,0.08-0.355,0.151-0.559,0.216
		c-0.203,0.063-0.413,0.117-0.629,0.16s-0.419,0.063-0.609,0.063h-0.013c-0.249,0-0.473-0.024-0.67-0.074
		c-0.196-0.05-0.362-0.132-0.498-0.249c-0.135-0.116-0.239-0.268-0.311-0.457c-0.072-0.188-0.108-0.419-0.108-0.692V28.368z"/>
	<path fill="#FFFFFF" d="M153.834,31.078c0-0.542,0.084-1.036,0.254-1.481c0.169-0.445,0.405-0.826,0.707-1.145
		c0.303-0.317,0.663-0.563,1.079-0.737c0.417-0.174,0.873-0.261,1.368-0.261c0.812,0,1.441,0.201,1.886,0.604
		c0.444,0.401,0.681,0.989,0.711,1.763c0.004,0.248,0.001,0.465-0.01,0.65s-0.033,0.348-0.066,0.487h-4.399
		c0.013,0.482,0.079,0.896,0.2,1.244c0.12,0.347,0.277,0.632,0.47,0.854c0.192,0.223,0.417,0.386,0.673,0.492
		c0.256,0.105,0.528,0.158,0.815,0.158c0.183,0,0.366-0.017,0.553-0.051c0.186-0.033,0.364-0.079,0.536-0.136
		c0.171-0.058,0.33-0.121,0.476-0.19c0.146-0.07,0.269-0.144,0.365-0.22l0.267,0.609c-0.118,0.123-0.272,0.242-0.463,0.359
		c-0.19,0.116-0.401,0.219-0.632,0.308s-0.478,0.16-0.739,0.216c-0.263,0.056-0.527,0.082-0.794,0.082
		c-0.546,0-1.022-0.087-1.432-0.264c-0.408-0.176-0.747-0.424-1.019-0.744c-0.271-0.319-0.473-0.699-0.606-1.141
		C153.901,32.094,153.834,31.609,153.834,31.078z M158.316,30.222c0.008-0.073,0.015-0.152,0.019-0.237
		c0.005-0.085,0.007-0.162,0.007-0.231c0-0.211-0.025-0.408-0.076-0.594s-0.131-0.348-0.238-0.487
		c-0.108-0.141-0.249-0.25-0.422-0.33c-0.174-0.08-0.388-0.12-0.642-0.12c-0.216,0-0.417,0.032-0.603,0.096
		c-0.187,0.063-0.351,0.173-0.492,0.327s-0.256,0.359-0.343,0.615s-0.141,0.576-0.162,0.962H158.316z"/>
	<path fill="#FFFFFF" d="M161.038,34.014l0.794-0.104V28.75l-0.908-0.246v-0.803l1.873-0.254h0.031l0.305,0.248v0.539l-0.013,0.306
		c0.14-0.131,0.314-0.263,0.523-0.395c0.21-0.132,0.435-0.248,0.673-0.35c0.239-0.101,0.481-0.183,0.728-0.246
		c0.245-0.064,0.476-0.096,0.691-0.096c0.47,0,0.846,0.078,1.127,0.234c0.281,0.157,0.496,0.4,0.645,0.73
		c0.118-0.102,0.274-0.21,0.469-0.324c0.195-0.114,0.408-0.219,0.639-0.313c0.23-0.096,0.47-0.174,0.717-0.235
		c0.248-0.062,0.483-0.092,0.708-0.092c0.415,0,0.759,0.057,1.031,0.171c0.273,0.114,0.489,0.289,0.647,0.525
		c0.159,0.236,0.27,0.538,0.334,0.904c0.062,0.367,0.095,0.806,0.095,1.315v3.539l0.907,0.104v0.664h-3.109v-0.664l0.748-0.111
		v-3.476c0-0.339-0.018-0.633-0.054-0.883s-0.104-0.458-0.203-0.623s-0.239-0.288-0.419-0.369c-0.18-0.08-0.411-0.12-0.695-0.12
		c-0.139,0-0.283,0.018-0.432,0.053c-0.147,0.035-0.295,0.082-0.44,0.142c-0.146,0.06-0.284,0.125-0.413,0.198
		c-0.129,0.072-0.244,0.146-0.346,0.221c0.042,0.192,0.072,0.403,0.089,0.633c0.017,0.23,0.025,0.48,0.025,0.751v3.474l0.927,0.111
		v0.664h-3.225v-0.664l0.845-0.111v-3.511c0-0.335-0.015-0.625-0.045-0.871c-0.029-0.246-0.091-0.45-0.184-0.611
		c-0.094-0.161-0.224-0.281-0.391-0.359c-0.167-0.079-0.386-0.118-0.657-0.118c-0.156,0-0.316,0.019-0.479,0.056
		c-0.162,0.038-0.322,0.088-0.479,0.152c-0.157,0.063-0.306,0.137-0.448,0.218c-0.142,0.082-0.27,0.169-0.384,0.261v4.784
		l0.851,0.111v0.664h-3.098V34.014z"/>
</g>
<g id="Rounded_1_">
	<path fill="#FFFFFF" d="M22.57,27.419c-3.8-3.549-8.602-6.034-13.947-6.994c-2.526-0.438-4.844,1.566-4.844,4.134v13.028
		c0,3.508,1.503,5.345,3.57,5.616c5.22,0.668,9.959,2.819,13.842,5.992c0.731,0.605,1.921,0.668,2.652,0.084
		c3.904-3.194,8.685-5.387,13.947-6.055c1.963-0.271,3.57-2.213,3.57-4.217c0-4.029,0-10.23,0-14.448
		c0-2.568-2.317-4.572-4.844-4.134C31.172,21.385,26.37,23.87,22.57,27.419z M22.57,20.007c3.466,0,6.263-2.798,6.263-6.263
		S26.036,7.48,22.57,7.48s-6.263,2.798-6.263,6.263S19.105,20.007,22.57,20.007z"/>
</g>
</svg>
